<?xml version="1.0" encoding="UTF-8"?>
<svg version="1.1" xmlns="http://www.w3.org/2000/svg" width="300" height="100">
<path d="M0 0 C8.87228675 8.61594459 13.5769519 18.92071604 14 31.3125 C13.57392069 43.79307303 8.84159336 54.10705725 -0.1875 62.6875 C-9.34838526 70.4055118 -19.50729318 73.14297355 -31.51953125 72.6953125 C-42.4714496 71.28864409 -51.87050261 66.44845266 -59.3984375 58.38671875 C-67.85021881 47.3793593 -69.47826259 36.25712983 -68.375 22.8125 C-66.44597863 12.82336385 -60.32841983 3.2417453 -52 -2.625 C-35.12639447 -12.69097847 -15.4703004 -13.06535086 0 0 Z " fill="#4B9AC8" transform="translate(85.375,18.1875)"/>
<path d="M0 0 C2.98823645 0.71382913 4.7124427 2.00209302 6.4453125 4.55078125 C7.51640186 6.88277328 8.05403665 9.12653814 8.62109375 11.62890625 C10.13040765 18.07217611 13.43714513 22.48161197 17.3125 27.71875 C21.37109375 33.33300967 21.37109375 33.33300967 21.37109375 37.56640625 C19.73140625 37.62828125 19.73140625 37.62828125 18.05859375 37.69140625 C16.84171875 37.98015625 15.62484375 38.26890625 14.37109375 38.56640625 C12.67107815 41.38278189 12.67107815 41.38278189 11.37109375 44.56640625 C8.68435874 47.05163613 6.84562236 48.40823005 3.37109375 49.56640625 C3.37109375 43.95640625 3.37109375 38.34640625 3.37109375 32.56640625 C6.34109375 32.56640625 9.31109375 32.56640625 12.37109375 32.56640625 C12.37109375 31.90640625 12.37109375 31.24640625 12.37109375 30.56640625 C11.38109375 31.06140625 11.38109375 31.06140625 10.37109375 31.56640625 C7.73109375 31.56640625 5.09109375 31.56640625 2.37109375 31.56640625 C2.37109375 37.83640625 2.37109375 44.10640625 2.37109375 50.56640625 C0.72109375 50.56640625 -0.92890625 50.56640625 -2.62890625 50.56640625 C-2.62890625 41.98640625 -2.62890625 33.40640625 -2.62890625 24.56640625 C0.34109375 24.56640625 3.31109375 24.56640625 6.37109375 24.56640625 C6.04109375 24.23640625 5.71109375 23.90640625 5.37109375 23.56640625 C2.40109375 23.56640625 -0.56890625 23.56640625 -3.62890625 23.56640625 C-3.62890625 32.47640625 -3.62890625 41.38640625 -3.62890625 50.56640625 C-4.94890625 50.56640625 -6.26890625 50.56640625 -7.62890625 50.56640625 C-7.62890625 43.30640625 -7.62890625 36.04640625 -7.62890625 28.56640625 C-10.26890625 28.56640625 -12.90890625 28.56640625 -15.62890625 28.56640625 C-15.62890625 29.22640625 -15.62890625 29.88640625 -15.62890625 30.56640625 C-12.16390625 30.07140625 -12.16390625 30.07140625 -8.62890625 29.56640625 C-8.62890625 36.16640625 -8.62890625 42.76640625 -8.62890625 49.56640625 C-13.89206396 47.46114317 -15.40529548 46.04364343 -18.62890625 41.56640625 C-19.44140625 39.19140625 -19.44140625 39.19140625 -19.62890625 37.56640625 C-21.93890625 37.56640625 -24.24890625 37.56640625 -26.62890625 37.56640625 C-26.26998982 30.56753589 -22.05084426 25.19593895 -17.44140625 20.19140625 C-15.51576402 17.40254509 -14.98304211 15.39660317 -14.19140625 12.12890625 C-12.07442817 3.88383374 -9.21824744 -0.64377062 0 0 Z " fill="#FBFDFD" transform="translate(60.62890625,24.43359375)"/>
<path d="M0 0 C3.24672609 1.93048579 5.09024654 3.69175632 6.4375 7.3125 C6.6875 11.0625 6.6875 11.0625 6.4375 14.3125 C5.4375 15.3125 5.4375 15.3125 2.875 15.375 C2.070625 15.354375 1.26625 15.33375 0.4375 15.3125 C0.045625 14.384375 -0.34625 13.45625 -0.75 12.5 C-2.75793178 8.96880963 -3.83825115 7.83605635 -7.5625 6.3125 C-10.94470923 6.01581498 -13.6563662 6.07404374 -16.9375 6.9375 C-19.39564961 9.01747274 -19.29319242 11.2154628 -19.5625 14.3125 C-16.71250108 15.46894187 -13.8530764 16.5754494 -10.96875 17.64453125 C-9.66657515 18.1377793 -8.3644936 18.63127371 -7.0625 19.125 C-6.41152344 19.36025391 -5.76054687 19.59550781 -5.08984375 19.83789062 C-0.57439236 21.57565525 2.24316625 23.70695538 5.4375 27.3125 C5.7675 27.6425 6.0975 27.9725 6.4375 28.3125 C7.0711972 32.49971441 7.28994307 36.55230267 5.4140625 40.42578125 C1.68791497 45.23271743 -2.68053567 47.16907086 -8.5625 48.3125 C-14.05442768 48.88063045 -17.70320525 47.92212125 -22.5625 45.3125 C-28.44003555 40.07382701 -28.44003555 40.07382701 -28.6953125 36.40234375 C-28.67361111 30.42361111 -28.67361111 30.42361111 -27.5625 29.3125 C-25.89632885 29.27186168 -24.22861905 29.269779 -22.5625 29.3125 C-22.30855469 29.86679687 -22.05460938 30.42109375 -21.79296875 30.9921875 C-21.44878906 31.71664062 -21.10460937 32.44109375 -20.75 33.1875 C-20.41355469 33.90679687 -20.07710938 34.62609375 -19.73046875 35.3671875 C-18.56782903 37.61792806 -18.56782903 37.61792806 -15.5625 39.3125 C-13.41306665 39.59127399 -13.41306665 39.59127399 -11.125 39.5 C-10.36316406 39.49355469 -9.60132813 39.48710938 -8.81640625 39.48046875 C-6.62312143 39.31701771 -4.67379193 38.91366513 -2.5625 38.3125 C-2.2325 36.3325 -1.9025 34.3525 -1.5625 32.3125 C-4.92461651 30.11841245 -8.25454065 28.61789535 -12.03295898 27.2722168 C-23.25988942 23.22149236 -23.25988942 23.22149236 -26.73046875 18.23046875 C-28.35329277 14.48959272 -28.61216722 11.25396564 -27.5625 7.3125 C-21.90833582 -2.52164035 -10.07273905 -4.60734545 0 0 Z " fill="#FFFFFF" transform="translate(277.5625,26.6875)"/>
<path d="M0 0 C2.625 0.3125 2.625 0.3125 4.04980469 1.76953125 C6.31990005 5.43433492 7.8510555 9.31836478 9.453125 13.3125 C9.80638855 14.18519531 10.1596521 15.05789062 10.52362061 15.95703125 C11.26629123 17.79821236 12.00574504 19.64069388 12.7421875 21.484375 C13.87292106 24.30730983 15.02184388 27.1223811 16.171875 29.9375 C16.89174857 31.72871552 17.61053597 33.52036803 18.328125 35.3125 C18.67385559 36.15425781 19.01958618 36.99601562 19.37579346 37.86328125 C19.68651794 38.65089844 19.99724243 39.43851563 20.31738281 40.25 C20.59479309 40.93964844 20.87220337 41.62929687 21.15802002 42.33984375 C21.71372414 44.68729601 21.42795616 46.05828901 20.625 48.3125 C19.625 49.3125 19.625 49.3125 17.0625 49.375 C16.258125 49.354375 15.45375 49.33375 14.625 49.3125 C13.81063132 47.54252526 12.9985706 45.77148848 12.1875 44 C11.73503906 43.01386719 11.28257812 42.02773437 10.81640625 41.01171875 C9.625 38.3125 9.625 38.3125 8.625 35.3125 C6.35475032 35.23152676 4.08367925 35.17332296 1.8125 35.125 C0.54792969 35.09019531 -0.71664062 35.05539063 -2.01953125 35.01953125 C-5.25868673 35.04175149 -5.25868673 35.04175149 -7.1875 36.46875 C-8.74001033 38.87922656 -9.63713642 41.28772743 -10.5625 44 C-11.07876953 45.49080078 -11.07876953 45.49080078 -11.60546875 47.01171875 C-11.85941406 47.77097656 -12.11335938 48.53023437 -12.375 49.3125 C-14.37454746 49.35504356 -16.37541636 49.35330783 -18.375 49.3125 C-18.705 48.9825 -19.035 48.6525 -19.375 48.3125 C-19.12498259 40.89531682 -16.40760818 34.25857344 -13.81958008 27.38598633 C-13.06671217 25.38618853 -12.32623462 23.38215291 -11.58789062 21.37695312 C-3.85930694 0.50780355 -3.85930694 0.50780355 0 0 Z M-0.375 15.3125 C-1.0458712 16.9357687 -1.71157029 18.56117578 -2.375 20.1875 C-2.74625 21.09242187 -3.1175 21.99734375 -3.5 22.9296875 C-4.48990226 25.20233858 -4.48990226 25.20233858 -4.375 27.3125 C-1.075 27.3125 2.225 27.3125 5.625 27.3125 C5.191875 25.889375 4.75875 24.46625 4.3125 23 C4.06886719 22.19949219 3.82523438 21.39898437 3.57421875 20.57421875 C2.58317977 18.21285427 1.54425057 16.97370007 -0.375 15.3125 Z " fill="#FFFFFF" transform="translate(130.375,24.6875)"/>
<path d="M0 0 C2.5625 0.4375 2.5625 0.4375 3.99926758 2.44165039 C5.93506475 6.1515 7.55402012 9.93718316 9.13671875 13.80859375 C9.46541458 14.60854263 9.79411041 15.40849152 10.13276672 16.23268127 C10.82328 17.91859899 11.51148412 19.60546411 12.19750977 21.29321289 C13.24683638 23.86723956 14.31159562 26.43452755 15.37695312 29.00195312 C16.04783527 30.64544167 16.7177886 32.28930974 17.38671875 33.93359375 C17.70541428 34.6962706 18.0241098 35.45894745 18.35246277 36.24473572 C20.04124858 40.45278723 21.0389566 43.81689608 20.5625 48.4375 C19.5625 49.4375 19.5625 49.4375 17 49.5 C16.195625 49.479375 15.39125 49.45875 14.5625 49.4375 C13.93217867 48.23193396 13.3085503 47.02286811 12.6875 45.8125 C12.33945313 45.13960937 11.99140625 44.46671875 11.6328125 43.7734375 C10.39935333 41.08143537 9.49889185 38.24667555 8.5625 35.4375 C2.9525 35.4375 -2.6575 35.4375 -8.4375 35.4375 C-8.705625 36.819375 -8.97375 38.20125 -9.25 39.625 C-10.09984744 43.36668941 -10.86315459 46.48177009 -13.4375 49.4375 C-16.0625 49.8125 -16.0625 49.8125 -18.4375 49.4375 C-18.7675 49.1075 -19.0975 48.7775 -19.4375 48.4375 C-19.0052224 42.23222471 -17.43813807 36.88142702 -15.3125 31.0625 C-15.00481689 30.20414551 -14.69713379 29.34579102 -14.38012695 28.46142578 C-13.41249265 25.78170978 -12.42868624 23.10858863 -11.4375 20.4375 C-11.11346191 19.56416016 -10.78942383 18.69082031 -10.45556641 17.79101562 C-9.52229804 15.29413408 -8.57733411 12.80216622 -7.625 10.3125 C-7.33544434 9.5488916 -7.04588867 8.7852832 -6.74755859 7.99853516 C-3.90723686 0.70129892 -3.90723686 0.70129892 0 0 Z M-0.4375 14.4375 C-1.11055018 16.03899886 -1.77572227 17.64381029 -2.4375 19.25 C-2.80875 20.14332031 -3.18 21.03664063 -3.5625 21.95703125 C-4.60383237 24.4706433 -4.60383237 24.4706433 -4.4375 27.4375 C-1.1375 27.4375 2.1625 27.4375 5.5625 27.4375 C3.9125 23.1475 2.2625 18.8575 0.5625 14.4375 C0.2325 14.4375 -0.0975 14.4375 -0.4375 14.4375 Z " fill="#FFFFFF" transform="translate(225.4375,24.5625)"/>
<path d="M0 0 C8.87228675 8.61594459 13.5769519 18.92071604 14 31.3125 C13.5658863 44.02841384 8.66300704 54.26882835 -0.5 63 C-3.0078125 65.29296875 -3.0078125 65.29296875 -5.375 66.8125 C-7.46484375 66.46484375 -7.46484375 66.46484375 -9.375 65.8125 C-11.7320226 66.75530904 -14.06534152 67.75897157 -16.375 68.8125 C-26.42570254 71.34643347 -37.18528892 70.72099756 -46.375 65.8125 C-48.39418133 64.25623142 -49.76486024 62.81129418 -51.375 60.8125 C-48.85977674 61.8158896 -46.34688896 62.82397831 -43.83984375 63.84765625 C-42.58880859 64.35619141 -42.58880859 64.35619141 -41.3125 64.875 C-40.05759766 65.38740234 -40.05759766 65.38740234 -38.77734375 65.91015625 C-28.87784933 69.62850294 -19.95805749 67.62434815 -10.375 63.8125 C-3.23093232 60.30967099 0.77368945 55.68541754 4.625 48.8125 C5.223125 47.760625 5.82125 46.70875 6.4375 45.625 C10.06338592 37.03737545 9.57527472 26.86099724 6.58984375 18.15234375 C2.805699 8.97540971 -3.82731197 1.71214379 -12.8125 -2.6875 C-21.68738065 -5.79856927 -33.37062471 -5.73858238 -42.1875 -2.5 C-45.98539211 -0.6529023 -48.57171518 1.63039291 -51.375 4.8125 C-53.66880949 6.8595072 -56.01941671 8.83706848 -58.375 10.8125 C-58.375 6.22221454 -55.52636055 4.00100122 -52.4375 0.8125 C-51.756875 0.1525 -51.07625 -0.5075 -50.375 -1.1875 C-49.6325 -2.033125 -48.89 -2.87875 -48.125 -3.75 C-34.77157633 -15.58598917 -12.44006308 -10.50618182 0 0 Z " fill="#7BA6CF" transform="translate(85.375,18.1875)"/>
<path d="M0 0 C4.55555556 0.55555556 4.55555556 0.55555556 6 2 C6.08868299 4.95705321 6.11520296 7.89065056 6.09765625 10.84765625 C6.0962413 11.7340831 6.09482635 12.62050995 6.09336853 13.53379822 C6.08775215 16.37673254 6.07519691 19.21958931 6.0625 22.0625 C6.05748711 23.98502491 6.05292384 25.90755104 6.04882812 27.83007812 C6.03777741 32.55341549 6.02050183 37.27669458 6 42 C6.91158371 41.8946418 6.91158371 41.8946418 7.84158325 41.78715515 C8.64425629 41.69585831 9.44692932 41.60456146 10.27392578 41.51049805 C11.06727325 41.41963425 11.86062073 41.32877045 12.67800903 41.2351532 C15.74834774 40.92421316 18.78976654 40.8309966 21.875 40.8125 C22.96554688 40.79832031 24.05609375 40.78414062 25.1796875 40.76953125 C28 41 28 41 31 43 C30.67 44.98 30.34 46.96 30 49 C25.74585377 49.02465622 21.49174502 49.04283899 17.23754883 49.05493164 C15.78929927 49.05997101 14.34105483 49.06680253 12.89282227 49.07543945 C10.81525412 49.08752247 8.73775303 49.09323211 6.66015625 49.09765625 C5.40855713 49.10289307 4.15695801 49.10812988 2.86743164 49.11352539 C0 49 0 49 -1 48 C-2.32766062 38.98781044 -2.1862766 29.76829707 -2.18530273 20.67822266 C-2.18752967 18.34390047 -2.2058751 16.01002277 -2.22460938 13.67578125 C-2.22753697 12.1875016 -2.229526 10.69921973 -2.23046875 9.2109375 C-2.23765427 8.51519623 -2.24483978 7.81945496 -2.25224304 7.10263062 C-2.2288803 2.2288803 -2.2288803 2.2288803 0 0 Z " fill="#FFFFFF" transform="translate(159,25)"/>
<path d="M0 0 C0.66 0.33 1.32 0.66 2 1 C0.91919113 3.65289449 -0.17296924 5.16816454 -2.25 7.1875 C-9.84536718 14.95548916 -13.90344995 23.42391482 -14.1875 34.3125 C-13.99983816 45.51591181 -9.86405626 54.95721518 -2 63 C7.96671803 70.94222843 17.32285401 73.10548159 30 72 C33.45144311 71.25361977 36.68472003 70.19821917 40 69 C41.32920553 68.65056968 42.66149398 68.3119143 44 68 C44 68.99 44 69.98 44 71 C31.60193821 76.06764883 20.72974206 77.6135554 7.88671875 72.84375 C-4.15273548 67.33650283 -11.06354353 59.18246936 -16 47 C-18.99214756 38.29890833 -17.97444514 25.89283475 -14.40234375 17.56640625 C-10.6249997 10.65355098 -6.32616026 4.74186969 0 0 Z " fill="#24AFD2" transform="translate(34,15)"/>
<path d="M0 0 C1.4540625 0.0309375 1.4540625 0.0309375 2.9375 0.0625 C5.13396446 4.45542892 4.12334933 10.40831449 4.12280273 15.29321289 C4.12498804 17.48799052 4.14314506 19.68226454 4.16210938 21.87695312 C4.16504365 23.27083161 4.16702822 24.66471249 4.16796875 26.05859375 C4.17207764 27.32888428 4.17618652 28.5991748 4.18041992 29.90795898 C3.9375 33.0625 3.9375 33.0625 1.9375 36.0625 C-0.625 36.3125 -0.625 36.3125 -3.0625 36.0625 C-4.7954298 34.3295702 -4.19070046 32.10035664 -4.20144653 29.79101562 C-4.1994223 29.05560547 -4.19739807 28.32019531 -4.1953125 27.5625 C-4.19626923 26.81162109 -4.19722595 26.06074219 -4.19821167 25.28710938 C-4.19889338 23.69661373 -4.19703972 22.10611533 -4.19287109 20.515625 C-4.18752267 18.07285345 -4.19281634 15.63026579 -4.19921875 13.1875 C-4.19855797 11.64583293 -4.1972768 10.10416597 -4.1953125 8.5625 C-4.19733673 7.82708984 -4.19936096 7.09167969 -4.20144653 6.33398438 C-4.17236879 0.08515038 -4.17236879 0.08515038 0 0 Z " fill="#FFFFFF" transform="translate(198.0625,37.9375)"/>
<path d="M0 0 C0.99 0.66 1.98 1.32 3 2 C1.63307581 10.86947403 -4.45252958 16.80389551 -10.8515625 22.6640625 C-13 24 -13 24 -15.05859375 23.625 C-15.69925781 23.41875 -16.33992188 23.2125 -17 23 C-19.3570226 23.94280904 -21.69034152 24.94647157 -24 26 C-34.05070254 28.53393347 -44.81028892 27.90849756 -54 23 C-56.01918133 21.44373142 -57.38986024 19.99879418 -59 18 C-56.48477674 19.0033896 -53.97188896 20.01147831 -51.46484375 21.03515625 C-50.63082031 21.37417969 -49.79679687 21.71320313 -48.9375 22.0625 C-48.10089844 22.40410156 -47.26429687 22.74570313 -46.40234375 23.09765625 C-36.50284933 26.81600294 -27.58305749 24.81184815 -18 21 C-8.77579844 16.47725438 -4.19198477 9.08263367 0 0 Z " fill="#A1BCDB" transform="translate(93,61)"/>
<path d="M0 0 C0.74765625 0.34933594 1.4953125 0.69867188 2.265625 1.05859375 C3.74289063 1.74115234 3.74289063 1.74115234 5.25 2.4375 C6.22453125 2.88996094 7.1990625 3.34242187 8.203125 3.80859375 C18.16395077 8.05168294 29.06996351 6.58894577 39 3 C40.32920553 2.65056968 41.66149398 2.3119143 43 2 C43 2.99 43 3.98 43 5 C30.90452425 9.94396823 19.49048956 11.97507416 7.015625 6.75 C4.63196206 5.56490204 2.30265628 4.33472554 0 3 C0 2.01 0 1.02 0 0 Z " fill="#429BC7" transform="translate(35,81)"/>
<path d="M0 0 C2.5 -0.3125 2.5 -0.3125 5 0 C7 2 7 2 7.25 4.5 C7 7 7 7 5 9 C1.875 8.625 1.875 8.625 -1 8 C-1.625 5.6875 -1.625 5.6875 -2 3 C-1.34 2.01 -0.68 1.02 0 0 Z " fill="#FFFFFF" transform="translate(195,25)"/>
<path d="M0 0 C-2.70460896 1.80307264 -4.85172193 2.73275783 -7.875 3.8125 C-12.28792121 5.54318256 -14.83415451 7.40633756 -18 11 C-20.29380949 13.0470072 -22.64441671 15.02456848 -25 17 C-25 12.89342796 -23.83388219 11.97212034 -21 9 C-8.26885785 -0.5906327 -8.26885785 -0.5906327 0 0 Z " fill="#C6E4F0" transform="translate(52,12)"/>
<path d="M0 0 C1.32 0.33 2.64 0.66 4 1 C0.04 4.465 0.04 4.465 -4 8 C-4 4.09161134 -2.49432124 2.88405893 0 0 Z " fill="#81CCE2" transform="translate(31,21)"/>
<path d="M0 0 C0.66 0.33 1.32 0.66 2 1 C2 1.66 2 2.32 2 3 C-0.64 3.99 -3.28 4.98 -6 6 C-4.98545548 3.4636387 -4.3146444 2.20648539 -2 0.6875 C-1.34 0.460625 -0.68 0.23375 0 0 Z " fill="#5B8CC1" transform="translate(76,83)"/>
</svg>
