<?xml version="1.0" encoding="UTF-8"?>
<svg version="1.1" xmlns="http://www.w3.org/2000/svg" width="200" height="200">
<path d="M0 0 C66 0 132 0 200 0 C200 66 200 132 200 200 C134 200 68 200 0 200 C0 134 0 68 0 0 Z " fill="#FEFEFD" transform="translate(0,0)"/>
<path d="M0 0 C0 15.18 0 30.36 0 46 C-7.19707078 48.87882831 -16.18086241 49.63443822 -23.68359375 47.08984375 C-27.9382552 44.58852104 -31.01273328 41.5541529 -33 37 C-33.73060892 31.46715957 -33.7483379 26.71494103 -31.5 21.5625 C-27.64243972 17.60850071 -24.03386991 14.4008717 -18.3984375 13.65625 C-14.32616975 13.60819964 -10.973485 14.00662875 -7 15 C-7 10.38 -7 5.76 -7 1 C-4 0 -4 0 0 0 Z " fill="#EB4924" transform="translate(157,76)"/>
<path d="M0 0 C4.10488479 2.82780952 7.56757505 6.44765011 9.8125 10.9375 C10.29931609 18.11803736 9.22976726 23.07494667 4.4375 28.75 C-0.08597813 32.51956511 -4.0362036 33.4673679 -9.84375 33.3125 C-14.69927926 32.53561532 -18.32040937 30.00970763 -21.57421875 26.3984375 C-24.78891462 21.63843169 -25.18163934 16.50991261 -24.1875 10.9375 C-22.20253101 5.81698264 -19.10677237 1.99106489 -14.14453125 -0.44140625 C-9.25091234 -1.99447093 -4.81406164 -1.60468721 0 0 Z " fill="#E74E2B" transform="translate(187.1875,91.0625)"/>
<path d="M0 0 C4.84641231 2.53035473 7.54942807 5.09885614 10 10 C10 13.3 10 16.6 10 20 C2.41 20 -5.18 20 -13 20 C-10.67748574 24.88495525 -10.67748574 24.88495525 -8 26 C-5.795636 26.22950319 -3.58607827 26.41075933 -1.375 26.5625 C-0.18648437 26.64628906 1.00203125 26.73007813 2.2265625 26.81640625 C3.59941406 26.90728516 3.59941406 26.90728516 5 27 C5 29.31 5 31.62 5 34 C-10.79834254 34.64143646 -10.79834254 34.64143646 -17.8125 28.5625 C-21.40250509 24.35706547 -22.43211045 21.76916857 -22.2421875 16.08203125 C-21.50014514 9.70286066 -18.47166149 6.06228377 -13.71875 2.1640625 C-9.58677747 -0.6344098 -4.79259333 -0.82710885 0 0 Z " fill="#E65939" transform="translate(108,90)"/>
<path d="M0 0 C5.7212369 2.91670901 8.97377774 6.92133322 11 13 C11.08143855 14.62719482 11.1075302 16.25751719 11.09765625 17.88671875 C11.09443359 18.82451172 11.09121094 19.76230469 11.08789062 20.72851562 C11.07532227 22.19321289 11.07532227 22.19321289 11.0625 23.6875 C11.05798828 24.67556641 11.05347656 25.66363281 11.04882812 26.68164062 C11.03704303 29.12115474 11.02059011 31.56054689 11 34 C8.36 34 5.72 34 3 34 C2.9906543 33.35450195 2.98130859 32.70900391 2.97167969 32.04394531 C2.91790899 29.11186056 2.8342766 26.18135992 2.75 23.25 C2.73582031 22.23421875 2.72164062 21.2184375 2.70703125 20.171875 C2.60938583 14.38952968 2.60938583 14.38952968 0.1328125 9.328125 C-2.85714188 7.46624865 -4.52932172 7.44469148 -8 8 C-11.32611165 9.19415 -11.32611165 9.19415 -14 12 C-14.90232033 15.74069459 -14.88473155 19.41577041 -14.875 23.25 C-14.895625 24.28125 -14.91625 25.3125 -14.9375 26.375 C-14.98458283 28.91747285 -15.00444327 31.45718042 -15 34 C-17.64 34 -20.28 34 -23 34 C-23 23.44 -23 12.88 -23 2 C-20.29120665 0.64560332 -17.99066732 0.93498549 -15 1 C-14.67 1.66 -14.34 2.32 -14 3 C-12.989375 2.505 -11.97875 2.01 -10.9375 1.5 C-7.13540847 -0.10209099 -4.15386071 -0.52867318 0 0 Z " fill="#DE6044" transform="translate(40,90)"/>
<path d="M0 0 C-0.33 2.31 -0.66 4.62 -1 7 C-1.89203125 7.09796875 -2.7840625 7.1959375 -3.703125 7.296875 C-4.87359375 7.44640625 -6.0440625 7.5959375 -7.25 7.75 C-8.99023438 7.95882812 -8.99023438 7.95882812 -10.765625 8.171875 C-14.40863552 9.10462649 -15.77797811 10.00134909 -18 13 C-18.72771233 15.73962288 -18.57971577 18.23214139 -18 21 C-16.12984906 23.43119623 -14.71861655 24.64069173 -12 26 C-10.12943209 26.2275015 -8.25314042 26.40962811 -6.375 26.5625 C-5.37210938 26.64628906 -4.36921875 26.73007813 -3.3359375 26.81640625 C-2.56507812 26.87699219 -1.79421875 26.93757813 -1 27 C-0.67 29.31 -0.34 31.62 0 34 C-15.57073945 34.63219544 -15.57073945 34.63219544 -21.71484375 29.59375 C-25.68654616 25.63139278 -26.94419331 21.99861953 -27.1640625 16.42578125 C-26.80131619 11.06231793 -24.92954895 7.92954895 -21.1875 4.1875 C-14.30626213 -0.53491815 -8.09898214 -0.23589268 0 0 Z " fill="#E05333" transform="translate(83,90)"/>
<path d="M0 0 C0.99 0.33 1.98 0.66 3 1 C3 14.86 3 28.72 3 43 C-1.69781173 44.87912469 -3.92919738 45.22365258 -8.8125 45.125 C-9.97394531 45.10695312 -11.13539063 45.08890625 -12.33203125 45.0703125 C-13.65267578 45.03550781 -13.65267578 45.03550781 -15 45 C-15 44.34 -15 43.68 -15 43 C-16.32 42.67 -17.64 42.34 -19 42 C-19 41.34 -19 40.68 -19 40 C-14.45398272 37.72699136 -7.91320403 38.31265844 -3 38 C-3.33 32.72 -3.66 27.44 -4 22 C-6.64 21.01 -9.28 20.02 -12 19 C-11.67 17.68 -11.34 16.36 -11 15 C-10.21625 15.020625 -9.4325 15.04125 -8.625 15.0625 C-6.01885039 15.18684063 -6.01885039 15.18684063 -4 14 C-3.64248879 10.9272138 -3.55560568 7.87590862 -3.44140625 4.78515625 C-3.29574219 3.86605469 -3.15007812 2.94695312 -3 2 C-2.01 1.34 -1.02 0.68 0 0 Z " fill="#E84B27" transform="translate(153,78)"/>
<path d="M0 0 C0.99 0.66 1.98 1.32 3 2 C3.22107787 4.7885289 3.28107535 7.34653181 3.1875 10.125 C3.16719727 11.25615234 3.16719727 11.25615234 3.14648438 12.41015625 C3.11109985 14.27374127 3.05729167 16.13695978 3 18 C-0.44894392 19.72447196 -4.22156745 19.36671096 -8 19 C-11.6686578 17.40493139 -14.08066898 15.53560977 -16 12 C-16.7013311 7.96734618 -16.13605788 6.25334916 -14.1875 2.625 C-10.47626586 -1.46056611 -5.08303862 -0.81832201 0 0 Z " fill="#FDF5F0" transform="translate(147,98)"/>
<path d="M0 0 C2.97717008 1.98478006 4.62826444 3.36831119 5.44140625 6.9375 C5.65307376 10.54267571 5.15689994 12.69273762 3.5 15.9375 C0.60917952 18.3224269 -1.26544844 19.02271074 -4.96484375 19.2578125 C-8.80949115 18.77077463 -10.56302257 16.85304674 -13 14 C-14.125 10.5625 -14.125 10.5625 -14 7 C-10.54868202 0.57340789 -7.2828737 -1.19756623 0 0 Z " fill="#FDF7F3" transform="translate(184,98)"/>
<path d="M0 0 C0 11.22 0 22.44 0 34 C-2.64 34 -5.28 34 -8 34 C-8 23.11 -8 12.22 -8 1 C-6 0 -6 0 0 0 Z " fill="#D8674C" transform="translate(11,90)"/>
<path d="M0 0 C2.0625 0.4375 2.0625 0.4375 4 1 C3.484375 1.680625 2.96875 2.36125 2.4375 3.0625 C0.54667622 6.92635729 0.80751048 8.90081728 2 13 C3.93126102 15.67838573 3.93126102 15.67838573 7 17 C9.8417315 17.22157751 12.34627201 17.06593258 15 16 C17.19466589 13.80038001 17.94025649 12.52574286 18.29296875 9.421875 C18.25816406 8.54015625 18.22335938 7.6584375 18.1875 6.75 C18.16042969 5.85796875 18.13335937 4.9659375 18.10546875 4.046875 C18.05326172 3.03367187 18.05326172 3.03367187 18 2 C18.99 2.33 19.98 2.66 21 3 C21.61319024 9.00926436 21.22153039 12.72458384 17.38671875 17.4921875 C15.96441149 19.03869624 14.50093801 20.52987304 13 22 C14.98 22 16.96 22 19 22 C16.20673397 24.79326603 13.6237282 25.19961605 9.8125 25.375 C4.48703659 25.29693946 0.9479284 23.51125009 -3 20 C-7.13539159 15.41029779 -7.39133002 10.94937306 -7.140625 4.94140625 C-7.09421875 4.30074219 -7.0478125 3.66007812 -7 3 C-6.67 3 -6.34 3 -6 3 C-6 5.97 -6 8.94 -6 12 C-5.34 12 -4.68 12 -4 12 C-3.34 12.66 -2.68 13.32 -2 14 C-1.93941406 13.07316406 -1.87882813 12.14632812 -1.81640625 11.19140625 C-1.73261719 9.99386719 -1.64882812 8.79632813 -1.5625 7.5625 C-1.48128906 6.36753906 -1.40007812 5.17257813 -1.31640625 3.94140625 C-1 1 -1 1 0 0 Z " fill="#E4502E" transform="translate(170,99)"/>
<path d="M0 0 C1.65 0 3.3 0 5 0 C5.33 0.99 5.66 1.98 6 3 C6.66 3 7.32 3 8 3 C8.125 5.375 8.125 5.375 8 8 C7.34 8.66 6.68 9.32 6 10 C5.72258755 12.23035297 5.72258755 12.23035297 5.8046875 14.7890625 C5.81113281 15.73007813 5.81757813 16.67109375 5.82421875 17.640625 C5.84097656 18.62546875 5.85773437 19.6103125 5.875 20.625 C5.88853516 22.11386719 5.88853516 22.11386719 5.90234375 23.6328125 C5.92595884 26.08878134 5.95889201 28.54427168 6 31 C4.02 31 2.04 31 0 31 C0 20.77 0 10.54 0 0 Z " fill="#E34C2B" transform="translate(18,92)"/>
<path d="M0 0 C3.75145128 1.96112967 7.36070096 4.04040948 8.71875 8.203125 C8.8115625 8.79609375 8.904375 9.3890625 9 10 C8.34 9.67 7.68 9.34 7 9 C7 8.34 7 7.68 7 7 C5.02 7.99 5.02 7.99 3 9 C3.185625 9.639375 3.37125 10.27875 3.5625 10.9375 C3.706875 11.618125 3.85125 12.29875 4 13 C3 14 3 14 -0.59765625 14.09765625 C-2.08596867 14.0909822 -3.57426432 14.07902183 -5.0625 14.0625 C-6.20041992 14.05573242 -6.20041992 14.05573242 -7.36132812 14.04882812 C-9.24091871 14.0370068 -11.12046899 14.01907078 -13 14 C-11.36986301 7.24657534 -11.36986301 7.24657534 -8 5 C-5.73828125 5.0234375 -5.73828125 5.0234375 -3.3125 5.375 C-2.10013672 5.54128906 -2.10013672 5.54128906 -0.86328125 5.7109375 C-0.24839844 5.80632812 0.36648437 5.90171875 1 6 C1.33 5.01 1.66 4.02 2 3 C-4.05160612 1.81434688 -4.05160612 1.81434688 -9.8125 3.5 C-13 5 -13 5 -16 4 C-10.75313993 0.42766974 -6.38706371 -1.46301972 0 0 Z " fill="#E0563A" transform="translate(108,90)"/>
<path d="M0 0 C0 15.18 0 30.36 0 46 C-7.19707078 48.87882831 -16.18086241 49.63443822 -23.68359375 47.08984375 C-27.94171992 44.58648413 -30.77506909 41.44986182 -33 37 C-33.25 34.125 -33.25 34.125 -33 32 C-32.7525 32.61875 -32.505 33.2375 -32.25 33.875 C-30.79371361 36.35068687 -29.62187494 36.95125002 -27 38 C-26.67 37.01 -26.34 36.02 -26 35 C-26.66 35 -27.32 35 -28 35 C-27.67 32.69 -27.34 30.38 -27 28 C-26.67 28 -26.34 28 -26 28 C-25.731875 29.258125 -25.46375 30.51625 -25.1875 31.8125 C-23.95161309 36.74734422 -22.20047921 38.19968053 -18 41 C-20.475 41.495 -20.475 41.495 -23 42 C-22.67 42.66 -22.34 43.32 -22 44 C-21.01 44.33 -20.02 44.66 -19 45 C-19 45.66 -19 46.32 -19 47 C-16.93722893 46.85805236 -14.87478969 46.71127784 -12.8125 46.5625 C-11.66394531 46.48128906 -10.51539063 46.40007812 -9.33203125 46.31640625 C-5.70097318 46.02906258 -5.70097318 46.02906258 -1 45 C-1.495 24.21 -1.495 24.21 -2 3 C-3.65 3.33 -5.3 3.66 -7 4 C-7 3.01 -7 2.02 -7 1 C-4 0 -4 0 0 0 Z " fill="#E15232" transform="translate(157,76)"/>
<path d="M0 0 C0.66 0 1.32 0 2 0 C2 0.66 2 1.32 2 2 C4.64 1.67 7.28 1.34 10 1 C10.0272415 2.41655793 10.04650467 3.83327045 10.0625 5.25 C10.07410156 6.03890625 10.08570313 6.8278125 10.09765625 7.640625 C10.00385306 9.90691002 9.63241063 11.8288895 9 14 C7.865625 14.12375 6.73125 14.2475 5.5625 14.375 C3.7990625 14.684375 3.7990625 14.684375 2 15 C1.67 15.66 1.34 16.32 1 17 C0.34 17 -0.32 17 -1 17 C-1.02684679 14.35409986 -1.04676357 11.70846904 -1.0625 9.0625 C-1.07087891 8.30775391 -1.07925781 7.55300781 -1.08789062 6.77539062 C-1.09652441 4.85005687 -1.05224333 2.92464419 -1 1 C-0.67 0.67 -0.34 0.34 0 0 Z " fill="#F9FAFB" transform="translate(1,75)"/>
<path d="M0 0 C-0.33 1.32 -0.66 2.64 -1 4 C-2.32 4 -3.64 4 -5 4 C-5 4.66 -5 5.32 -5 6 C-6.32 6.33 -7.64 6.66 -9 7 C-9.04898438 7.98742187 -9.09796875 8.97484375 -9.1484375 9.9921875 C-9.26058594 11.91417969 -9.26058594 11.91417969 -9.375 13.875 C-9.44460937 15.15117188 -9.51421875 16.42734375 -9.5859375 17.7421875 C-10 21 -10 21 -12 23 C-12.33 21.35 -12.66 19.7 -13 18 C-13.66 18 -14.32 18 -15 18 C-15.33662094 12.74497318 -15.56808992 8.34921357 -13.5 3.4375 C-9.62627722 -0.33937971 -5.32965017 -1.77655006 0 0 Z " fill="#ED4923" transform="translate(179,93)"/>
<path d="M0 0 C1.32 0 2.64 0 4 0 C4 10.23 4 20.46 4 31 C2.68 31 1.36 31 0 31 C0 20.77 0 10.54 0 0 Z " fill="#EF4823" transform="translate(5,91)"/>
<path d="M0 0 C4.22616087 1.56524477 6.61783235 3.16206323 9 7 C7.35 7 5.7 7 4 7 C3.67 8.32 3.34 9.64 3 11 C2.01 10.34 1.02 9.68 0 9 C-2.51584891 8.75849227 -2.51584891 8.75849227 -5.1875 8.875 C-6.53908203 8.90207031 -6.53908203 8.90207031 -7.91796875 8.9296875 C-8.94857422 8.96449219 -8.94857422 8.96449219 -10 9 C-10 8.34 -10 7.68 -10 7 C-8.68 7 -7.36 7 -6 7 C-6 5.68 -6 4.36 -6 3 C-8.64 3.33 -11.28 3.66 -14 4 C-9.69642984 -0.49918699 -6.05107638 -0.57047185 0 0 Z " fill="#E6502D" transform="translate(184,90)"/>
<path d="M0 0 C1.98 0 3.96 0 6 0 C6.33 0.66 6.66 1.32 7 2 C7.66 2 8.32 2 9 2 C9 3.32 9 4.64 9 6 C10.32 6.33 11.64 6.66 13 7 C12.02804688 7.42796875 11.05609375 7.8559375 10.0546875 8.296875 C7.72540906 9.8497273 7.08920675 10.63755134 6.41113281 13.39257812 C6.18350822 16.35684771 6.11745449 19.27706981 6.125 22.25 C6.104375 23.28125 6.08375 24.3125 6.0625 25.375 C6.01541717 27.91747285 5.99555673 30.45718042 6 33 C3.36 33 0.72 33 -2 33 C-2 22.44 -2 11.88 -2 1 C-1.67 1 -1.34 1 -1 1 C-1 11.23 -1 21.46 -1 32 C0.98 32 2.96 32 5 32 C4.9278125 31.32195312 4.855625 30.64390625 4.78125 29.9453125 C3.02938739 12.37802357 3.02938739 12.37802357 6 7 C6.33 6.01 6.66 5.02 7 4 C6.34 4 5.68 4 5 4 C4.67 3.34 4.34 2.68 4 2 C1.98330173 0.86649466 1.98330173 0.86649466 0 0 Z " fill="#DB7057" transform="translate(19,91)"/>
<path d="M0 0 C2.64 0 5.28 0 8 0 C8 0.33 8 0.66 8 1 C5.36 1.33 2.72 1.66 0 2 C0 12.89 0 23.78 0 35 C-0.99 34.67 -1.98 34.34 -3 34 C-3 23.77 -3 13.54 -3 3 C-2.34 3 -1.68 3 -1 3 C-0.67 2.01 -0.34 1.02 0 0 Z " fill="#FEF5EF" transform="translate(3,89)"/>
<path d="M0 0 C2.67927341 4.01891012 2.15601248 6.24161923 2 11 C-2.95 11 -7.9 11 -13 11 C-13 10.34 -13 9.68 -13 9 C-15.31 9 -17.62 9 -20 9 C-20 8.67 -20 8.34 -20 8 C-14.72 8 -9.44 8 -4 8 C-4 6.35 -4 4.7 -4 3 C-4.66 2.34 -5.32 1.68 -6 1 C-4 0 -4 0 0 0 Z " fill="#EB4923" transform="translate(115,97)"/>
<path d="M0 0 C0.33 0.99 0.66 1.98 1 3 C1.99 3 2.98 3 4 3 C4 10.26 4 17.52 4 25 C2.68 25 1.36 25 0 25 C0 16.75 0 8.5 0 0 Z " fill="#EF4823" transform="translate(19,97)"/>
<path d="M0 0 C0.845625 0.00644531 1.69125 0.01289062 2.5625 0.01953125 C4.83252477 0.17595924 6.81961604 0.55660186 9 1.1875 C8 4.1875 8 4.1875 6 5.1875 C6 4.5275 6 3.8675 6 3.1875 C4.35 3.5175 2.7 3.8475 1 4.1875 C0.67 5.1775 0.34 6.1675 0 7.1875 C1.32 7.5175 2.64 7.8475 4 8.1875 C3.40832031 8.20167969 2.81664062 8.21585938 2.20703125 8.23046875 C-2.35846843 8.50603725 -4.44161431 8.72027932 -8.0625 11.75 C-8.701875 12.554375 -9.34125 13.35875 -10 14.1875 C-9.75 11.3125 -9.75 11.3125 -9 8.1875 C-6.9375 6.8125 -6.9375 6.8125 -5 6.1875 C-5 5.5275 -5 4.8675 -5 4.1875 C-6.32 3.5275 -7.64 2.8675 -9 2.1875 C-5.87186463 0.35551331 -3.60914709 -0.06051923 0 0 Z " fill="#E55939" transform="translate(141,89.8125)"/>
<path d="M0 0 C4 4.1025641 4 4.1025641 4 6 C-1.28 6 -6.56 6 -12 6 C-11 2 -11 2 -9.375 0.1875 C-5.85514386 -1.57242807 -3.73140563 -1.06611589 0 0 Z " fill="#FDE6DB" transform="translate(107,98)"/>
<path d="M0 0 C0 15.18 0 30.36 0 46 C-4.83932257 47.93572903 -8.26284198 48.24232896 -13.3125 48.125 C-14.05306641 48.11597656 -14.79363281 48.10695312 -15.55664062 48.09765625 C-17.37123467 48.07424213 -19.18566071 48.03837615 -21 48 C-21 47.67 -21 47.34 -21 47 C-19.46279297 46.90912109 -19.46279297 46.90912109 -17.89453125 46.81640625 C-16.53384305 46.73194974 -15.17316657 46.64730433 -13.8125 46.5625 C-13.13896484 46.52318359 -12.46542969 46.48386719 -11.77148438 46.44335938 C-8.05701727 46.2078078 -4.67104506 45.73420901 -1 45 C-1.495 24.21 -1.495 24.21 -2 3 C-3.65 3.33 -5.3 3.66 -7 4 C-7 3.01 -7 2.02 -7 1 C-4 0 -4 0 0 0 Z " fill="#CF5E45" transform="translate(157,76)"/>
<path d="M0 0 C1.875 1.5 1.875 1.5 3 3 C1.948125 2.79375 0.89625 2.5875 -0.1875 2.375 C-4.00613886 1.99939618 -5.7352474 2.07955729 -9 4 C-9.92547185 6.77641555 -10.27208142 8.99289564 -10.53515625 11.88671875 C-10.66567383 13.2934082 -10.66567383 13.2934082 -10.79882812 14.72851562 C-10.9293457 16.19321289 -10.9293457 16.19321289 -11.0625 17.6875 C-11.15337891 18.67556641 -11.24425781 19.66363281 -11.33789062 20.68164062 C-11.56177679 23.12082148 -11.78235239 25.56025587 -12 28 C-14.97 28 -17.94 28 -21 28 C-21 27.67 -21 27.34 -21 27 C-18.36 27 -15.72 27 -13 27 C-13.03927612 26.03175293 -13.03927612 26.03175293 -13.0793457 25.04394531 C-13.18342439 22.11287883 -13.2483581 19.18220091 -13.3125 16.25 C-13.3753418 14.72632812 -13.3753418 14.72632812 -13.43945312 13.171875 C-13.56363589 5.62156259 -13.56363589 5.62156259 -10.60546875 2.359375 C-6.6839333 0.31335651 -4.50106875 -0.36743418 0 0 Z " fill="#FEEBDF" transform="translate(38,97)"/>
<path d="M0 0 C0.33 0 0.66 0 1 0 C1 6.6 1 13.2 1 20 C-0.32 20 -1.64 20 -3 20 C-3.08139142 17.60347472 -3.14067009 15.20974564 -3.1875 12.8125 C-3.22520508 11.80219727 -3.22520508 11.80219727 -3.26367188 10.77148438 C-3.3289449 6.31116118 -2.73686642 3.55034309 0 0 Z " fill="#EE4921" transform="translate(48,102)"/>
<path d="M0 0 C0 1.32 0 2.64 0 4 C-0.68707031 3.91621094 -1.37414062 3.83242187 -2.08203125 3.74609375 C-2.98308594 3.64425781 -3.88414063 3.54242188 -4.8125 3.4375 C-5.70582031 3.33308594 -6.59914063 3.22867188 -7.51953125 3.12109375 C-10.13375572 2.84341291 -10.13375572 2.84341291 -13 4 C-13 4.66 -13 5.32 -13 6 C-14.98 6 -16.96 6 -19 6 C-18.796875 4.14453125 -18.796875 4.14453125 -18 2 C-15.890625 0.69921875 -15.890625 0.69921875 -13.25 -0.3125 C-12.38890625 -0.65925781 -11.5278125 -1.00601563 -10.640625 -1.36328125 C-6.64479521 -2.32677275 -3.82302879 -1.27434293 0 0 Z " fill="#EC4822" transform="translate(110,93)"/>
<path d="M0 0 C7.59 0 15.18 0 23 0 C23 0.33 23 0.66 23 1 C22.08476563 1.04898438 21.16953125 1.09796875 20.2265625 1.1484375 C19.03804687 1.22320312 17.84953125 1.29796875 16.625 1.375 C14.84996094 1.47941406 14.84996094 1.47941406 13.0390625 1.5859375 C9.89437681 1.70217346 9.89437681 1.70217346 8 4 C9.49743119 5.49743119 10.98824239 5.33202693 13.0625 5.5625 C14.361875 5.706875 15.66125 5.85125 17 6 C17 6.33 17 6.66 17 7 C6.12011967 7.62468212 6.12011967 7.62468212 1.75 5.1875 C0 3 0 3 0 0 Z " fill="#FDECE3" transform="translate(95,110)"/>
<path d="M0 0 C0 1.32 0 2.64 0 4 C-0.66386719 4.03738281 -1.32773438 4.07476562 -2.01171875 4.11328125 C-7.07036379 4.4899103 -10.84180819 4.81205295 -15 8 C-15 7.34 -15 6.68 -15 6 C-15.66 6 -16.32 6 -17 6 C-16.05796011 3.4308003 -15.34534325 2.21583953 -13 0.75 C-8.66425705 -0.33393574 -4.44535343 -0.15537158 0 0 Z " fill="#EE4822" transform="translate(81,91)"/>
<path d="M0 0 C0.639375 0.33 1.27875 0.66 1.9375 1 C1.9375 2.65 1.9375 4.3 1.9375 6 C1.2775 6 0.6175 6 -0.0625 6 C-0.0625 5.34 -0.0625 4.68 -0.0625 4 C-5.08375926 3.22083908 -9.03953996 2.86983399 -14.0625 4 C-14.0625 2.68 -14.0625 1.36 -14.0625 0 C-9.81147771 -2.12551114 -4.38932977 -1.43325054 0 0 Z " fill="#EC4A21" transform="translate(42.0625,93)"/>
<path d="M0 0 C0.66 0 1.32 0 2 0 C2 0.66 2 1.32 2 2 C1.01 2.495 1.01 2.495 0 3 C-0.72159424 4.64363134 -1.39351421 6.31050386 -2 8 C-1.26716797 8.60134766 -1.26716797 8.60134766 -0.51953125 9.21484375 C1.40183551 11.47207925 1.37513515 12.63792038 1.3125 15.5625 C1.30863281 16.34753906 1.30476562 17.13257812 1.30078125 17.94140625 C1 20 1 20 -1 22 C-1.33 20.35 -1.66 18.7 -2 17 C-2.66 17 -3.32 17 -4 17 C-4.68844492 6.25260979 -4.68844492 6.25260979 -2.125 2.3125 C-1.42375 1.549375 -0.7225 0.78625 0 0 Z " fill="#E3532F" transform="translate(168,94)"/>
<path d="M0 0 C0 2.64 0 5.28 0 8 C-2.64 8.33 -5.28 8.66 -8 9 C-8 6.69 -8 4.38 -8 2 C-4.91190305 0.23537317 -3.76687864 0 0 0 Z " fill="#38496C" transform="translate(11,76)"/>
<path d="M0 0 C0 0.66 0 1.32 0 2 C2.64 2 5.28 2 8 2 C8 2.99 8 3.98 8 5 C8.99 5.33 9.98 5.66 11 6 C6.71 6 2.42 6 -2 6 C-2 5.34 -2 4.68 -2 4 C-3.32 3.67 -4.64 3.34 -6 3 C-6 2.34 -6 1.68 -6 1 C-4 0 -4 0 0 0 Z " fill="#EF4724" transform="translate(140,117)"/>
<path d="M0 0 C0.99386719 0.10183594 1.98773438 0.20367187 3.01171875 0.30859375 C3.77097656 0.39238281 4.53023437 0.47617188 5.3125 0.5625 C5.3125 1.8825 5.3125 3.2025 5.3125 4.5625 C-3.86036652 5.19269694 -3.86036652 5.19269694 -7.3125 2.5625 C-7.76625 1.9025 -8.22 1.2425 -8.6875 0.5625 C-5.3763987 -0.54120043 -3.44001051 -0.36423641 0 0 Z " fill="#ED4922" transform="translate(75.6875,118.4375)"/>
<path d="M0 0 C3.96 0 7.92 0 12 0 C11.67 2.31 11.34 4.62 11 7 C10.08476563 7.13277344 9.16953125 7.26554687 8.2265625 7.40234375 C7.03804687 7.57894531 5.84953125 7.75554687 4.625 7.9375 C3.44164063 8.11152344 2.25828125 8.28554687 1.0390625 8.46484375 C-1.90702381 8.83462786 -1.90702381 8.83462786 -4 10 C-2.25 6.125 -2.25 6.125 0 5 C1.70702735 4.93003986 3.41668003 4.91559846 5.125 4.9375 C6.03507812 4.94652344 6.94515625 4.95554687 7.8828125 4.96484375 C8.58148438 4.97644531 9.28015625 4.98804687 10 5 C10 3.68 10 2.36 10 1 C6.7 1 3.4 1 0 1 C0 0.67 0 0.34 0 0 Z " fill="#DB5A3D" transform="translate(71,90)"/>
<path d="M0 0 C1.27351308 2.54702616 0.80191925 3.4282945 0.0625 6.125 C-0.13214844 6.84945312 -0.32679687 7.57390625 -0.52734375 8.3203125 C-0.68332031 8.87460938 -0.83929688 9.42890625 -1 10 C-1.66 10 -2.32 10 -3 10 C-2.67 10.5775 -2.34 11.155 -2 11.75 C-1 14 -1 14 -1 18 C-0.34 18 0.32 18 1 18 C1.33 19.65 1.66 21.3 2 23 C-1.86027106 20.03056072 -3.35150005 18.01483868 -4 13.125 C-4.27586998 8.26823642 -3.33870536 5.22765968 -1 1 C-0.67 0.67 -0.34 0.34 0 0 Z " fill="#DB5C43" transform="translate(60,96)"/>
<path d="M0 0 C0.33 0.66 0.66 1.32 1 2 C1.66 2.33 2.32 2.66 3 3 C3 3.66 3 4.32 3 5 C3.1547747 6.37638932 3.32275148 7.751324 3.5 9.125 C3.665 10.40375 3.83 11.6825 4 13 C2.68 13.33 1.36 13.66 0 14 C-1.25664978 11.09399739 -2 9.20395416 -2 6 C-1.34 6 -0.68 6 0 6 C0 4.02 0 2.04 0 0 Z " fill="#EC4921" transform="translate(59,100)"/>
<path d="M0 0 C2.41553613 1.97634774 4.1525899 3.58764983 5.75 6.25 C5.75 6.91 5.75 7.57 5.75 8.25 C5.09 8.25 4.43 8.25 3.75 8.25 C3.75 7.26 3.75 6.27 3.75 5.25 C2.76 5.25 1.77 5.25 0.75 5.25 C0.42 4.26 0.09 3.27 -0.25 2.25 C-3.41678884 0.9789265 -6.62733787 1.14734926 -10 1.1875 C-10.98484375 1.19652344 -11.9696875 1.20554687 -12.984375 1.21484375 C-14.10585938 1.23224609 -14.10585938 1.23224609 -15.25 1.25 C-14.25 -0.75 -14.25 -0.75 -12.625 -1.375 C-7.76226766 -2.14279984 -4.42500727 -2.38269622 0 0 Z " fill="#DB624A" transform="translate(43.25,91.75)"/>
<path d="M0 0 C3 1 3 1 5 3 C5.66 2.67 6.32 2.34 7 2 C7.042721 3.66611905 7.04063832 5.33382885 7 7 C6.67 7.33 6.34 7.66 6 8 C5.60430892 10.01311449 5.25747809 12.03597208 4.9375 14.0625 C4.67259766 15.71958984 4.67259766 15.71958984 4.40234375 17.41015625 C4.26957031 18.26480469 4.13679687 19.11945313 4 20 C3.34 20 2.68 20 2 20 C2.165 19.175 2.33 18.35 2.5 17.5 C3.47096353 10.70325531 3.65553345 6.09255574 0 0 Z " fill="#FEECE0" transform="translate(193,96)"/>
<path d="M0 0 C2 1 2 1 2 1 Z M-5 1 C-0.46623794 0.6221865 -0.46623794 0.6221865 1.8125 2.46875 C4.54587974 4.38211582 6.44483801 4.49076417 9.75 4.6875 C11.22726563 4.78611328 11.22726563 4.78611328 12.734375 4.88671875 C13.48203125 4.92410156 14.2296875 4.96148437 15 5 C15.33 3.68 15.66 2.36 16 1 C16 2.65 16 4.3 16 6 C2.03636757 6.56694447 2.03636757 6.56694447 -4 3 C-4.33 2.34 -4.66 1.68 -5 1 Z " fill="#DA5E42" transform="translate(67,118)"/>
<path d="M0 0 C0 0.66 0 1.32 0 2 C-6.435 2.495 -6.435 2.495 -13 3 C-13 3.66 -13 4.32 -13 5 C-14.32 5.33 -15.64 5.66 -17 6 C-16 3 -16 3 -13.5625 1.3125 C-8.93501394 -0.39236329 -4.87420366 -0.26008597 0 0 Z " fill="#FDD9CB" transform="translate(82,97)"/>
<path d="M0 0 C5.6 2.2 5.6 2.2 7 5 C5.35 5 3.7 5 2 5 C2 4.34 2 3.68 2 3 C-3.96345767 1.9993291 -8.28728907 1.9337003 -14 4 C-9.70485008 -0.49038401 -6.04358772 -0.58813438 0 0 Z " fill="#DE664D" transform="translate(184,90)"/>
<path d="M0 0 C0.33 0.99 0.66 1.98 1 3 C1.99 3.33 2.98 3.66 4 4 C4 4.99 4 5.98 4 7 C3.34 7 2.68 7 2 7 C1.29875 6.154375 0.5975 5.30875 -0.125 4.4375 C-2.6406634 1.80535475 -2.6406634 1.80535475 -5.10546875 1.890625 C-7.08696182 2.15716212 -9.04749552 2.56978715 -11 3 C-11 2.34 -11 1.68 -11 1 C-6.8204355 -1.78637633 -4.85331323 -0.79562512 0 0 Z " fill="#DF5636" transform="translate(108,96)"/>
<path d="M0 0 C1.48034764 0.47550561 2.95925021 0.95551216 4.4375 1.4375 C5.26121094 1.70433594 6.08492187 1.97117187 6.93359375 2.24609375 C9 3 9 3 10 4 C14.13300269 4.19223268 17.94241601 3.77287314 22 3 C19.20673397 5.79326603 16.6237282 6.19961605 12.8125 6.375 C7.58774586 6.34930449 3.96652032 4.29642696 0 1 C0 0.67 0 0.34 0 0 Z " fill="#D85F45" transform="translate(167,118)"/>
<path d="M0 0 C4.62 0 9.24 0 14 0 C14 0.66 14 1.32 14 2 C15.65 2.33 17.3 2.66 19 3 C19.33 4.32 19.66 5.64 20 7 C19.56171875 6.6390625 19.1234375 6.278125 18.671875 5.90625 C12.57717913 1.44671643 7.37556471 1.44683265 0 2 C0 1.34 0 0.68 0 0 Z " fill="#FEEEE2" transform="translate(96,89)"/>
<path d="M0 0 C0 1.65 0 3.3 0 5 C-2.64 5 -5.28 5 -8 5 C-7.25 3.0625 -7.25 3.0625 -6 1 C-3.86997684 0.20124132 -2.26695035 0 0 0 Z " fill="#E94B23" transform="translate(112,118)"/>
<path d="M0 0 C0.99 0.33 1.98 0.66 3 1 C3.63019694 9.03501094 3.63019694 9.03501094 1 13.0625 C0.34 13.701875 -0.32 14.34125 -1 15 C-1.66 14.67 -2.32 14.34 -3 14 C-2.50886719 13.44828125 -2.01773438 12.8965625 -1.51171875 12.328125 C0.30109424 9.53629931 0.3172951 8.03814259 0.1875 4.75 C0.16042969 3.85796875 0.13335937 2.9659375 0.10546875 2.046875 C0.07066406 1.37140625 0.03585938 0.6959375 0 0 Z " fill="#DC6448" transform="translate(188,101)"/>
<path d="M0 0 C3.1875 -0.25 3.1875 -0.25 6 0 C6.33 1.32 6.66 2.64 7 4 C3.7 4 0.4 4 -3 4 C-2.01 2.68 -1.02 1.36 0 0 Z " fill="#FCFCFC" transform="translate(101,99)"/>
<path d="M0 0 C5.28 0 10.56 0 16 0 C13 3 13 3 9.8125 3.1875 C8.4203125 3.0946875 8.4203125 3.0946875 7 3 C7 2.34 7 1.68 7 1 C4.69 1 2.38 1 0 1 C0 0.67 0 0.34 0 0 Z " fill="#E24D2B" transform="translate(95,105)"/>
<path d="M0 0 C1.65 0 3.3 0 5 0 C5 1.32 5 2.64 5 4 C3.35 4.33 1.7 4.66 0 5 C0 5.66 0 6.32 0 7 C-0.99 7 -1.98 7 -3 7 C-2.690625 6.401875 -2.38125 5.80375 -2.0625 5.1875 C-0.89790296 2.91043228 -0.89790296 2.91043228 0 0 Z " fill="#EF471F" transform="translate(132,93)"/>
<path d="M0 0 C0.66 0.33 1.32 0.66 2 1 C1.01 2.485 1.01 2.485 0 4 C1.32 4.33 2.64 4.66 4 5 C-0.92127034 5.16682272 -4.50343896 5.24828052 -9 3 C-9 2.67 -9 2.34 -9 2 C-7.329375 2.061875 -7.329375 2.061875 -5.625 2.125 C-1.95633975 2.41121859 -1.95633975 2.41121859 0 0 Z " fill="#DF5234" transform="translate(104,119)"/>
<path d="M0 0 C0.66 0.33 1.32 0.66 2 1 C1.360625 1.474375 0.72125 1.94875 0.0625 2.4375 C-2.84850272 6.05420035 -2.80649782 9.47204894 -3 14 C-5 12 -5 12 -5.4375 9.25 C-4.83839921 4.79953698 -3.06348779 3.21666218 0 0 Z " fill="#FDE0D3" transform="translate(136,98)"/>
<path d="M0 0 C2.77153305 1.38576653 3.48074938 3.34131141 5 6 C5.99 7.485 5.99 7.485 7 9 C4.69 8.34 2.38 7.68 0 7 C0 4.69 0 2.38 0 0 Z " fill="#FDECE0" transform="translate(86,112)"/>
<path d="M0 0 C-0.33 1.32 -0.66 2.64 -1 4 C-2.32 4.33 -3.64 4.66 -5 5 C-5 6.65 -5 8.3 -5 10 C-5.99 10 -6.98 10 -8 10 C-6.83833955 5.74057835 -5.25202969 0 0 0 Z " fill="#DC6349" transform="translate(132,93)"/>
<path d="M0 0 C0 0.33 0 0.66 0 1 C-0.60328125 1.12117188 -1.2065625 1.24234375 -1.828125 1.3671875 C-2.62734375 1.53476563 -3.4265625 1.70234375 -4.25 1.875 C-5.03890625 2.03742188 -5.8278125 2.19984375 -6.640625 2.3671875 C-9.02675211 2.91075382 -9.02675211 2.91075382 -11.109375 4.1328125 C-13 5 -13 5 -16 4 C-10.45834744 0.22695996 -6.65545792 -0.54330269 0 0 Z " fill="#E16B52" transform="translate(108,90)"/>
<path d="M0 0 C1.98 0.495 1.98 0.495 4 1 C4 1.66 4 2.32 4 3 C4.66 3.33 5.32 3.66 6 4 C3.625 5.0625 3.625 5.0625 1 6 C0.34 5.67 -0.32 5.34 -1 5 C-0.67 3.35 -0.34 1.7 0 0 Z " fill="#F14727" transform="translate(63,114)"/>
<path d="M0 0 C1.65 0 3.3 0 5 0 C5.33 1.32 5.66 2.64 6 4 C3.69 4 1.38 4 -1 4 C-0.67 2.68 -0.34 1.36 0 0 Z " fill="#EF4722" transform="translate(142,93)"/>
<path d="M0 0 C0.66 1.32 1.32 2.64 2 4 C2.66 3.67 3.32 3.34 4 3 C4.125 6.375 4.125 6.375 4 10 C3.34 10.66 2.68 11.32 2 12 C0.00214565 7.8794254 -0.17835515 4.54805635 0 0 Z " fill="#F04724" transform="translate(165,104)"/>
<path d="M0 0 C1.50433594 0.01353516 1.50433594 0.01353516 3.0390625 0.02734375 C3.80992187 0.03894531 4.58078125 0.05054687 5.375 0.0625 C5.375 0.3925 5.375 0.7225 5.375 1.0625 C4.78332031 1.07667969 4.19164062 1.09085937 3.58203125 1.10546875 C-0.98346843 1.38103725 -3.06661431 1.59527932 -6.6875 4.625 C-7.326875 5.429375 -7.96625 6.23375 -8.625 7.0625 C-8.25 4.125 -8.25 4.125 -7.625 1.0625 C-4.98041621 -0.25979189 -2.94738699 -0.03427194 0 0 Z " fill="#E25E46" transform="translate(139.625,96.9375)"/>
<path d="M0 0 C2.69964923 3.47097758 5.03205593 7.06411187 7 11 C3.64189605 9.61043975 1.81413448 8.17473533 0 5 C-0.1875 2.25 -0.1875 2.25 0 0 Z " fill="#FBD8CB" transform="translate(170,105)"/>
<path d="M0 0 C0.2475 0.5775 0.495 1.155 0.75 1.75 C2.16683317 4.3002997 3.87627537 6.01785701 6 8 C5.01 9.485 5.01 9.485 4 11 C1.17438373 7.20307814 -0.56638908 4.81430721 0 0 Z " fill="#DB5A3E" transform="translate(124,108)"/>
</svg>
