<?xml version="1.0" encoding="UTF-8"?>
<svg version="1.1" xmlns="http://www.w3.org/2000/svg" width="200" height="200">
<path d="M0 0 C66 0 132 0 200 0 C200 66 200 132 200 200 C134 200 68 200 0 200 C0 134 0 68 0 0 Z " fill="#224099" transform="translate(0,0)"/>
<path d="M0 0 C0 0.99 0 1.98 0 3 C0.99 3 1.98 3 3 3 C3.02578125 3.75023438 3.0515625 4.50046875 3.078125 5.2734375 C3.43885751 11.7830197 4.42394034 17.01131554 7.16015625 22.94140625 C8 25 8 25 8 28 C3.71 28 -0.58 28 -5 28 C-5.495 25.03 -5.495 25.03 -6 22 C-6.99 22 -7.98 22 -9 22 C-9 25.3 -9 28.6 -9 32 C-9.99 32.495 -9.99 32.495 -11 33 C-8.62949403 34.18525298 -6.89018332 34.20698833 -4.25 34.375 C0.08830854 34.75853162 3.22566709 35.71553534 7 38 C7.25 45.625 7.25 45.625 5 49 C4.34 49 3.68 49 3 49 C3 49.66 3 50.32 3 51 C3.66 51 4.32 51 5 51 C5.50559908 52.43554025 6.0042749 53.8735202 6.5 55.3125 C6.7784375 56.11300781 7.056875 56.91351563 7.34375 57.73828125 C8 60 8 60 8 63 C4.625 62.75 4.625 62.75 1 62 C-1.30634419 59.19227664 -1.19642641 56.53567531 -1 53 C-1.99 53 -2.98 53 -4 53 C-3.505 58.94 -3.505 58.94 -3 65 C-9 65 -9 65 -10.8125 63.9375 C-12.55729603 61.09072753 -12.69042148 58.28153235 -13 55 C-13.38285156 55.92039062 -13.38285156 55.92039062 -13.7734375 56.859375 C-15.85010783 60.48362768 -19.15186597 61.68121944 -23 63 C-27.00377824 63.66852077 -30.18434595 63.36444117 -33.9375 61.6875 C-36 60 -36 60 -37 57 C-37.99 57 -38.98 57 -40 57 C-41.30459914 54.39080172 -41.1326594 52.41057385 -41.125 49.5 C-41.12757812 48.5203125 -41.13015625 47.540625 -41.1328125 46.53125 C-41 44 -41 44 -40 42 C-40.94875 42.04125 -41.8975 42.0825 -42.875 42.125 C-46 42 -46 42 -48 40 C-48 47.59 -48 55.18 -48 63 C-49.98 63 -51.96 63 -54 63 C-54 56.07 -54 49.14 -54 42 C-55.98 42 -57.96 42 -60 42 C-60.33 45.63 -60.66 49.26 -61 53 C-61.66 53 -62.32 53 -63 53 C-63.0825 53.7425 -63.165 54.485 -63.25 55.25 C-64.14910403 58.54671477 -65.42369934 59.81404792 -68 62 C-71.48443422 63.74221711 -75.19887045 63.58675154 -79 63 C-82.07469523 61.29748281 -84.40613254 59.18773492 -86 56 C-86.33 57.32 -86.66 58.64 -87 60 C-87.66 60 -88.32 60 -89 60 C-89 60.66 -89 61.32 -89 62 C-89.66 62 -90.32 62 -91 62 C-91.02689216 60.52093108 -91.04634621 59.04172517 -91.0625 57.5625 C-91.07410156 56.73878906 -91.08570313 55.91507813 -91.09765625 55.06640625 C-91 53 -91 53 -90 52 C-89.76975458 50.02646786 -89.54051046 48.05280344 -89.3203125 46.078125 C-88.92688036 43.52561405 -88.09336414 41.33251015 -87 39 C-86.34 39 -85.68 39 -85 39 C-84.67 37.35 -84.34 35.7 -84 34 C-82.68 34 -81.36 34 -80 34 C-78.08195815 33.84998555 -76.16523314 33.68240316 -74.25 33.5 C-73.26515625 33.4071875 -72.2803125 33.314375 -71.265625 33.21875 C-70.14414063 33.11046875 -70.14414063 33.11046875 -69 33 C-69 32.34 -69 31.68 -69 31 C-70.60416667 30.85416667 -72.20833333 30.70833333 -73.8125 30.5625 C-75.30136719 30.42714844 -75.30136719 30.42714844 -76.8203125 30.2890625 C-77.86960937 30.19367188 -78.91890625 30.09828125 -80 30 C-82.0625 29.8125 -84.125 29.625 -86.1875 29.4375 C-87.775625 29.293125 -89.36375 29.14875 -91 29 C-91 22.07 -91 15.14 -91 8 C-93.31 8 -95.62 8 -98 8 C-98 5.69 -98 3.38 -98 1 C-89.42 1 -80.84 1 -72 1 C-71.67 2.65 -71.34 4.3 -71 6 C-70.34 6 -69.68 6 -69 6 C-68.67 4.02 -68.34 2.04 -68 0 C-62.39 0 -56.78 0 -51 0 C-51 1.98 -51 3.96 -51 6 C-48.5 5 -48.5 5 -47 1 C-38.42 1 -29.84 1 -21 1 C-21 3.31 -21 5.62 -21 8 C-23.31 8 -25.62 8 -28 8 C-26.81575674 9.41577477 -26.81575674 9.41577477 -23.4375 9.0625 C-22.303125 9.041875 -21.16875 9.02125 -20 9 C-20 6.36 -20 3.72 -20 1 C-16.50085455 -0.01449426 -13.06355331 -0.3362358 -9.4375 -0.625 C-8.30183594 -0.72039062 -7.16617188 -0.81578125 -5.99609375 -0.9140625 C-3 -1 -3 -1 0 0 Z " fill="#29428C" transform="translate(145,68)"/>
<path d="M0 0 C4.29 0 8.58 0 13 0 C14.50599286 3.93530277 16.00501668 7.87301693 17.5 11.8125 C18.14388672 13.49182617 18.14388672 13.49182617 18.80078125 15.20507812 C19.40986328 16.81479492 19.40986328 16.81479492 20.03125 18.45703125 C20.40830078 19.44678955 20.78535156 20.43654785 21.17382812 21.45629883 C22 24 22 24 22 27 C17.71 27 13.42 27 9 27 C8.505 24.03 8.505 24.03 8 21 C7.01 21 6.02 21 5 21 C5 24.3 5 27.6 5 31 C4.01 31.495 4.01 31.495 3 32 C5.37050597 33.18525298 7.10981668 33.20698833 9.75 33.375 C14.08830854 33.75853162 17.22566709 34.71553534 21 37 C21.25 44.625 21.25 44.625 19 48 C18.34 48 17.68 48 17 48 C17 48.66 17 49.32 17 50 C17.66 50 18.32 50 19 50 C19.50559908 51.43554025 20.0042749 52.8735202 20.5 54.3125 C20.7784375 55.11300781 21.056875 55.91351563 21.34375 56.73828125 C22 59 22 59 22 62 C18.625 61.75 18.625 61.75 15 61 C12.69365581 58.19227664 12.80357359 55.53567531 13 52 C12.01 52 11.02 52 10 52 C10.495 57.94 10.495 57.94 11 64 C5 64 5 64 3.1875 62.9375 C1.44270397 60.09072753 1.30957852 57.28153235 1 54 C0.61714844 54.92039062 0.61714844 54.92039062 0.2265625 55.859375 C-1.85010783 59.48362768 -5.15186597 60.68121944 -9 62 C-13.00377824 62.66852077 -16.18434595 62.36444117 -19.9375 60.6875 C-22 59 -22 59 -23 56 C-23.99 56 -24.98 56 -26 56 C-27.30459914 53.39080172 -27.1326594 51.41057385 -27.125 48.5 C-27.12757812 47.5203125 -27.13015625 46.540625 -27.1328125 45.53125 C-27 43 -27 43 -26 41 C-26.94875 41.04125 -27.8975 41.0825 -28.875 41.125 C-32 41 -32 41 -34 39 C-34 46.59 -34 54.18 -34 62 C-35.65 62 -37.3 62 -39 62 C-39 54.41 -39 46.82 -39 39 C-41.64 39 -44.28 39 -47 39 C-47 37.35 -47 35.7 -47 34 C-39.74 33.67 -32.48 33.34 -25 33 C-25 33.99 -25 34.98 -25 36 C-23.80375 35.505 -22.6075 35.01 -21.375 34.5 C-17.78898524 33.14088765 -14.86595201 32.7100536 -11 33 C-11 31.35 -11 29.7 -11 28 C-10.34 27.67 -9.68 27.34 -9 27 C-8.64296138 25.00409556 -8.31430048 23.00307921 -8 21 C-7.26059434 18.85625552 -6.46631508 16.73083714 -5.625 14.625 C-4.95791016 12.93697266 -4.95791016 12.93697266 -4.27734375 11.21484375 C-3.85582031 10.15394531 -3.43429688 9.09304687 -3 8 C-2.39105575 6.39764082 -1.78593112 4.79381511 -1.1875 3.1875 C-0.795625 2.135625 -0.40375 1.08375 0 0 Z " fill="#274597" transform="translate(131,69)"/>
<path d="M0 0 C0 0.99 0 1.98 0 3 C0.99 3 1.98 3 3 3 C3.625 6.375 3.625 6.375 4 10 C3.34 10.66 2.68 11.32 2 12 C1.49384702 10.73160474 0.99530901 9.46016898 0.5 8.1875 C0.2215625 7.47980469 -0.056875 6.77210937 -0.34375 6.04296875 C-1 4 -1 4 -1 1 C-5.29 1 -9.58 1 -14 1 C-14.0928125 2.36125 -14.0928125 2.36125 -14.1875 3.75 C-14.85271166 8.50288913 -16.8244867 12.66892588 -18.72265625 17.04296875 C-20.28209577 20.6530474 -21.65069677 24.3071701 -23 28 C-19.37 28 -15.74 28 -12 28 C-12 28.33 -12 28.66 -12 29 C-16.29 29 -20.58 29 -25 29 C-25 30.65 -25 32.3 -25 34 C-26.01320313 34.19916016 -26.01320313 34.19916016 -27.046875 34.40234375 C-27.93890625 34.57894531 -28.8309375 34.75554687 -29.75 34.9375 C-30.63171875 35.11152344 -31.5134375 35.28554687 -32.421875 35.46484375 C-34.63235053 35.92368488 -36.81512068 36.43336074 -39 37 C-39 36.01 -39 35.02 -39 34 C-40.485 34.495 -40.485 34.495 -42 35 C-44.5808926 34.91255992 -47.11691478 34.77131505 -49.6875 34.5625 C-50.7403418 34.48418945 -50.7403418 34.48418945 -51.81445312 34.40429688 C-53.54338054 34.27492135 -55.27175355 34.13817469 -57 34 C-57.33 32.35 -57.66 30.7 -58 29 C-54.85069107 27.95023036 -52.61185544 27.89868405 -49.3125 27.9375 C-48.31863281 27.94652344 -47.32476562 27.95554687 -46.30078125 27.96484375 C-45.16189453 27.98224609 -45.16189453 27.98224609 -44 28 C-44.21914062 27.46375 -44.43828125 26.9275 -44.6640625 26.375 C-47.92847665 18.30685446 -50.96422459 10.15611661 -54 2 C-57.96 1.67 -61.92 1.34 -66 1 C-66 0.67 -66 0.34 -66 0 C-61.05 0 -56.1 0 -51 0 C-51 1.98 -51 3.96 -51 6 C-48.5 5 -48.5 5 -47 1 C-38.42 1 -29.84 1 -21 1 C-21 3.31 -21 5.62 -21 8 C-23.31 8 -25.62 8 -28 8 C-26.81575674 9.41577477 -26.81575674 9.41577477 -23.4375 9.0625 C-21.7359375 9.0315625 -21.7359375 9.0315625 -20 9 C-20 6.36 -20 3.72 -20 1 C-16.50085455 -0.01449426 -13.06355331 -0.3362358 -9.4375 -0.625 C-8.30183594 -0.72039062 -7.16617188 -0.81578125 -5.99609375 -0.9140625 C-3 -1 -3 -1 0 0 Z " fill="#244092" transform="translate(145,68)"/>
<path d="M0 0 C4.33682792 2.2518145 7.16927416 4.42318541 9 9 C9.81442015 15.0063486 9.03509545 19.7670768 6 25 C2.45782348 28.22963153 -1.14545839 28.57640139 -5.78125 28.421875 C-9.64770813 27.68670338 -11.3349795 25.860022 -14 23 C-16.72012792 18.5318861 -16.65120088 14.0890143 -16 9 C-12.50026192 1.87090391 -7.94077865 -0.97518334 0 0 Z " fill="#E1EAF6" transform="translate(74,103)"/>
<path d="M0 0 C3.82209946 2.38692377 6.56170311 4.68510932 8 9 C8.9026689 19.38809125 8.9026689 19.38809125 6.25 24.125 C2.13871252 27.5510729 -0.52194263 28.41407791 -6.0390625 28.25 C-10.00942079 27.74381886 -12.19796481 25.88500435 -14.8125 23 C-16.64402335 18.37299365 -16.55462279 13.91026046 -16 9 C-14.56221573 5.71363596 -12.75709885 3.29758238 -10 1 C-6.29397865 -0.23534045 -3.90246386 -0.45528745 0 0 Z " fill="#E4EEFB" transform="translate(122,103)"/>
<path d="M0 0 C3.96 0 7.92 0 12 0 C15.28841608 6.9323366 17.94001984 13.62269606 20 21 C20.65629516 23.00342734 21.31760646 25.00531118 22 27 C18.37 27 14.74 27 11 27 C9.35 22.38 7.7 17.76 6 13 C4.35 17.62 2.7 22.24 1 27 C-2.3 27 -5.6 27 -9 27 C-8.2653891 22.73925679 -7.00379251 18.71213494 -5.625 14.625 C-5.31175781 13.67367187 -5.31175781 13.67367187 -4.9921875 12.703125 C-3.53940515 8.36249481 -1.85000038 4.18684297 0 0 Z " fill="#F2F6F9" transform="translate(79,69)"/>
<path d="M0 0 C4.29 0 8.58 0 13 0 C14.50599286 3.93530277 16.00501668 7.87301693 17.5 11.8125 C17.92925781 12.93205078 18.35851562 14.05160156 18.80078125 15.20507812 C19.20683594 16.27822266 19.61289063 17.35136719 20.03125 18.45703125 C20.40830078 19.44678955 20.78535156 20.43654785 21.17382812 21.45629883 C22 24 22 24 22 27 C18.37 27 14.74 27 11 27 C10.58427734 25.62714844 10.58427734 25.62714844 10.16015625 24.2265625 C9.79792969 23.03804687 9.43570313 21.84953125 9.0625 20.625 C8.70285156 19.44164063 8.34320313 18.25828125 7.97265625 17.0390625 C7.12423726 14.12073182 7.12423726 14.12073182 6 12 C4.35 16.95 2.7 21.9 1 27 C-2.3 27 -5.6 27 -9 27 C-8.4020253 22.57498723 -7.27991525 18.76730302 -5.625 14.625 C-5.18027344 13.49964844 -4.73554687 12.37429687 -4.27734375 11.21484375 C-3.64505859 9.62349609 -3.64505859 9.62349609 -3 8 C-2.39105575 6.39764082 -1.78593112 4.79381511 -1.1875 3.1875 C-0.795625 2.135625 -0.40375 1.08375 0 0 Z " fill="#F4F8FB" transform="translate(131,69)"/>
<path d="M0 0 C2.31 0 4.62 0 7 0 C8.65 5.28 10.3 10.56 12 16 C13.7149101 12.5701798 14.94130926 9.37998493 16.125 5.75 C16.47820313 4.67234375 16.83140625 3.5946875 17.1953125 2.484375 C17.46085937 1.66453125 17.72640625 0.8446875 18 0 C20.64 0 23.28 0 26 0 C26 8.58 26 17.16 26 26 C24.68 26 23.36 26 22 26 C21.93941406 24.85660156 21.87882812 23.71320313 21.81640625 22.53515625 C21.73201572 21.04425695 21.64736698 19.55337225 21.5625 18.0625 C21.52318359 17.30775391 21.48386719 16.55300781 21.44335938 15.77539062 C21.55961976 12.08055813 21.55961976 12.08055813 20 9 C19.73445313 9.89203125 19.46890625 10.7840625 19.1953125 11.703125 C18.66550781 13.45882812 18.66550781 13.45882812 18.125 15.25 C17.77695312 16.41015625 17.42890625 17.5703125 17.0703125 18.765625 C16.21467611 21.35127072 15.3062454 23.62286874 14 26 C12.68 26 11.36 26 10 26 C8.35 20.72 6.7 15.44 5 10 C4.34 15.61 3.68 21.22 3 27 C1.35 27 -0.3 27 -2 27 C-1.85785272 23.99978513 -1.71138304 20.99988211 -1.5625 18 C-1.52318359 17.16082031 -1.48386719 16.32164063 -1.44335938 15.45703125 C-1.18148668 10.25986542 -0.7100648 5.15542847 0 0 Z " fill="#E4EBF5" transform="translate(27,104)"/>
<path d="M0 0 C8.25 0 16.5 0 25 0 C25 2.31 25 4.62 25 7 C22.69 7 20.38 7 18 7 C18 13.6 18 20.2 18 27 C14.37 27 10.74 27 7 27 C7 20.73 7 14.46 7 8 C4.69 8 2.38 8 0 8 C0 5.36 0 2.72 0 0 Z " fill="#F4F8FB" transform="translate(99,69)"/>
<path d="M0 0 C8.25 0 16.5 0 25 0 C25 2.64 25 5.28 25 8 C22.69 8 20.38 8 18 8 C18 14.27 18 20.54 18 27 C14.37 27 10.74 27 7 27 C7 20.4 7 13.8 7 7 C4.69 7 2.38 7 0 7 C0 4.69 0 2.38 0 0 Z " fill="#F3F8FB" transform="translate(47,69)"/>
<path d="M0 0 C12.375 0 12.375 0 17 3 C17.25 10.625 17.25 10.625 15 14 C14.34 14 13.68 14 13 14 C13 14.66 13 15.32 13 16 C13.66 16 14.32 16 15 16 C15.50559908 17.43554025 16.0042749 18.8735202 16.5 20.3125 C16.7784375 21.11300781 17.056875 21.91351563 17.34375 22.73828125 C18 25 18 25 18 28 C16.35 28 14.7 28 13 28 C12.85304687 27.30132812 12.70609375 26.60265625 12.5546875 25.8828125 C11.87413563 23.12149286 11.17228806 20.59363365 10 18 C6.98226415 16.23902514 6.98226415 16.23902514 4 16 C4 19.63 4 23.26 4 27 C2.68 27 1.36 27 0 27 C0 18.09 0 9.18 0 0 Z " fill="#E5ECF5" transform="translate(135,103)"/>
<path d="M0 0 C0.66 0.33 1.32 0.66 2 1 C2 2.32 2 3.64 2 5 C-2.455 5.495 -2.455 5.495 -7 6 C-7 7.32 -7 8.64 -7 10 C-6.28972656 10.33773437 -5.57945312 10.67546875 -4.84765625 11.0234375 C-3.92855469 11.46945313 -3.00945312 11.91546875 -2.0625 12.375 C-1.14597656 12.81585938 -0.22945312 13.25671875 0.71484375 13.7109375 C3 15 3 15 4 17 C4.3125 19.875 4.3125 19.875 4 23 C2.1329009 25.30275556 0.64352259 26.67823871 -2 28 C-3.49756871 28.09499503 -4.99942932 28.12987198 -6.5 28.125 C-7.2940625 28.12757813 -8.088125 28.13015625 -8.90625 28.1328125 C-11 28 -11 28 -13 27 C-13 25.68 -13 24.36 -13 23 C-9.7 23 -6.4 23 -3 23 C-2.67 21.68 -2.34 20.36 -2 19 C-2.62648437 18.67386719 -3.25296875 18.34773438 -3.8984375 18.01171875 C-5.12433594 17.35623047 -5.12433594 17.35623047 -6.375 16.6875 C-7.18710938 16.25824219 -7.99921875 15.82898438 -8.8359375 15.38671875 C-11 14 -11 14 -13 11 C-13.5 7.5625 -13.5 7.5625 -13 4 C-8.86924873 0.07074879 -5.58711355 -0.53722246 0 0 Z " fill="#E1EAF7" transform="translate(171,103)"/>
<path d="M0 0 C3 1 3 1 4.9375 3.5 C6.29696745 7.97824572 6.24741135 11.49735767 5 16 C2.87728566 19.22338104 1.7663201 19.84034998 -2 20.625 C-5 20 -5 20 -7.375 17.4375 C-9.22744549 13.51886531 -9.54509491 11.28288861 -9 7 C-6.97502157 2.6607605 -5.09954912 0 0 0 Z " fill="#223F98" transform="translate(72,107)"/>
<path d="M0 0 C3.5625 0.5 3.5625 0.5 6 1.875 C8.4352957 5.96629678 8.43027545 9.86937067 7.5625 14.5 C5.25588056 17.79517062 3.9381945 19.19801828 0 20.0625 C-3.50209879 19.25432336 -4.49930764 18.5867508 -6.4375 15.5 C-7.07301743 10.84660012 -7.49523785 6.36363336 -5.125 2.1875 C-3.4375 0.5 -3.4375 0.5 0 0 Z " fill="#214097" transform="translate(117.4375,107.5)"/>
<path d="M0 0 C2.875 0.1875 2.875 0.1875 6 1 C8.45514435 4.79431399 8.17292614 8.59038348 8 13 C8.99 13 9.98 13 11 13 C10.67 12.34 10.34 11.68 10 11 C9.960008 9.00039988 9.95653201 6.99952758 10 5 C10.66 4.67 11.32 4.34 12 4 C12.12375 5.093125 12.2475 6.18625 12.375 7.3125 C12.75464801 11.07381802 12.75464801 11.07381802 15 14 C17.02852466 15.09100611 19.09818996 15.95240846 21.22265625 16.83984375 C23 18 23 18 23.87109375 20.00390625 C23.91363281 20.66261719 23.95617187 21.32132813 24 22 C22 24 22 24 20.125 24.23046875 C19.42375 24.21628906 18.7225 24.20210937 18 24.1875 C17.29875 24.18105469 16.5975 24.17460938 15.875 24.16796875 C14 24 14 24 12 23 C11.67 24.32 11.34 25.64 11 27 C10.67 25.02 10.34 23.04 10 21 C13.465 20.505 13.465 20.505 17 20 C17 20.66 17 21.32 17 22 C18.32 22 19.64 22 21 22 C18.80202597 19.80202597 17.82453855 19.54102483 14.875 18.875 C13.59625 18.58625 12.3175 18.2975 11 18 C10.67 18.66 10.34 19.32 10 20 C9.34 20 8.68 20 8 20 C8.03480469 20.69867188 8.06960937 21.39734375 8.10546875 22.1171875 C8.13253906 23.02726562 8.15960938 23.93734375 8.1875 24.875 C8.22230469 25.77992188 8.25710937 26.68484375 8.29296875 27.6171875 C8.19628906 28.40351563 8.09960938 29.18984375 8 30 C7.01 30.66 6.02 31.32 5 32 C4.01 31.34 3.02 30.68 2 30 C2 29.34 2 28.68 2 28 C3.65 28 5.3 28 7 28 C6.7834375 27.38511719 6.566875 26.77023438 6.34375 26.13671875 C6.0653125 25.32847656 5.786875 24.52023438 5.5 23.6875 C5.08234375 22.48673828 5.08234375 22.48673828 4.65625 21.26171875 C4 19 4 19 4 16 C3.34 16 2.68 16 2 16 C2 15.34 2 14.68 2 14 C2.474375 13.62875 2.94875 13.2575 3.4375 12.875 C5.91815779 9.89821065 5.68762481 6.81097735 6 3 C4.02 2.34 2.04 1.68 0 1 C0 0.67 0 0.34 0 0 Z " fill="#2D4894" transform="translate(146,103)"/>
<path d="M0 0 C6.6 0 13.2 0 20 0 C20 1.32 20 2.64 20 4 C17.69 4 15.38 4 13 4 C13 11.59 13 19.18 13 27 C11.35 27 9.7 27 8 27 C8 19.41 8 11.82 8 4 C5.36 4 2.72 4 0 4 C0 2.68 0 1.36 0 0 Z " fill="#E3EDF7" transform="translate(84,104)"/>
<path d="M0 0 C3.3 0 6.6 0 10 0 C10 0.99 10 1.98 10 3 C8.02 3 6.04 3 4 3 C4 5.97 4 8.94 4 12 C4.94875 11.95875 5.8975 11.9175 6.875 11.875 C10 12 10 12 12 14 C11.34 14 10.68 14 10 14 C9.67 14.66 9.34 15.32 9 16 C7.35 15.67 5.7 15.34 4 15 C4 18.63 4 22.26 4 26 C2.68 26 1.36 26 0 26 C0 17.42 0 8.84 0 0 Z " fill="#F5FBFE" transform="translate(135,104)"/>
<path d="M0 0 C0.33 0 0.66 0 1 0 C1.02718316 2.85423192 1.04692705 5.70820015 1.0625 8.5625 C1.07087891 9.36236328 1.07925781 10.16222656 1.08789062 10.98632812 C1.10742247 15.77163104 0.80437018 20.28145051 0 25 C1.65 25 3.3 25 5 25 C4.98839844 24.29875 4.97679687 23.5975 4.96484375 22.875 C4.91028816 17.13886898 5.14381623 11.67221747 6 6 C8.86632944 8.86632944 9.2315668 12.29316426 10.125 16.125 C10.30675781 16.87910156 10.48851562 17.63320312 10.67578125 18.41015625 C11.12354709 20.27191946 11.56260722 22.13577253 12 24 C13.32 24 14.64 24 16 24 C16.66 22.68 17.32 21.36 18 20 C18.33 20.99 18.66 21.98 19 23 C18.34 23 17.68 23 17 23 C16.67 24.32 16.34 25.64 16 27 C10.25 26.25 10.25 26.25 8 24 C7.34 24.33 6.68 24.66 6 25 C6 25.66 6 26.32 6 27 C3.69 26.67 1.38 26.34 -1 26 C-1.14368684 17.28299826 -0.71961582 8.68679101 0 0 Z " fill="#384D8C" transform="translate(25,106)"/>
<path d="M0 0 C4.95 0 9.9 0 15 0 C15 1.98 15 3.96 15 6 C17.51083114 4.74458443 17.87125446 3.49936512 19 1 C19 3.64 19 6.28 19 9 C19.804375 9.309375 20.60875 9.61875 21.4375 9.9375 C24 11 24 11 25 12 C25.04092937 14.33297433 25.04241723 16.66705225 25 19 C24.01 19.33 23.02 19.66 22 20 C21.67 20.99 21.34 21.98 21 23 C19 22 19 22 17.78125 18.796875 C17.34662213 17.45032854 16.91987082 16.10122065 16.5 14.75 C15.12728837 10.43219797 13.68540776 6.2135194 12 2 C8.04 1.67 4.08 1.34 0 1 C0 0.67 0 0.34 0 0 Z " fill="#28428C" transform="translate(79,68)"/>
<path d="M0 0 C3.10039543 1.75494081 5.48825667 3.48825667 8 6 C8 6.99 8 7.98 8 9 C6.68 9 5.36 9 4 9 C3.67 9.66 3.34 10.32 3 11 C2.34 9.02 1.68 7.04 1 5 C-3.77841845 4.66662197 -6.01897257 5.44805934 -10 8 C-12.8125 8.6875 -12.8125 8.6875 -15 9 C-11.90973313 1.78937731 -7.69099963 -0.64091664 0 0 Z " fill="#D9E5F3" transform="translate(74,103)"/>
<path d="M0 0 C3.5625 0.5 3.5625 0.5 6 1.875 C8.4352957 5.96629678 8.43027545 9.86937067 7.5625 14.5 C5.25588056 17.79517062 3.9381945 19.19801828 0 20.0625 C-3.50209879 19.25432336 -4.49930764 18.5867508 -6.4375 15.5 C-7.07301743 10.84660012 -7.49523785 6.36363336 -5.125 2.1875 C-3.4375 0.5 -3.4375 0.5 0 0 Z M-4.4375 5.5 C-4.87767701 7.86499504 -4.87767701 7.86499504 -4.75 10.5 C-4.74613281 11.386875 -4.74226563 12.27375 -4.73828125 13.1875 C-4.65152407 15.69264055 -4.65152407 15.69264055 -2.4375 17.5 C1.09144948 17.41256309 1.09144948 17.41256309 4.5625 16.5 C6.69836678 13.29619983 6.79382175 12.48060033 6.6875 8.8125 C6.66042969 7.60013672 6.66042969 7.60013672 6.6328125 6.36328125 C6.60960938 5.74839844 6.58640625 5.13351563 6.5625 4.5 C2.20743755 3.25569644 -0.50206084 2.87637389 -4.4375 5.5 Z " fill="#3A4F8D" transform="translate(117.4375,107.5)"/>
<path d="M0 0 C3 1 3 1 4.9375 3.5 C6.29696745 7.97824572 6.24741135 11.49735767 5 16 C2.87728566 19.22338104 1.7663201 19.84034998 -2 20.625 C-5 20 -5 20 -7.375 17.4375 C-9.22744549 13.51886531 -9.54509491 11.28288861 -9 7 C-6.97502157 2.6607605 -5.09954912 0 0 0 Z M-5.875 4.125 C-7.15830781 7.40456441 -7.44569579 9.50871632 -7 13 C-6.02896212 15.46186579 -6.02896212 15.46186579 -4 17 C-0.87376745 17.31900332 1.17116253 17.41441874 4 16 C4.1799928 10.78020872 3.97094808 6.92737019 2 2 C-2.51526226 1.40741811 -2.51526226 1.40741811 -5.875 4.125 Z " fill="#485A8F" transform="translate(72,107)"/>
<path d="M0 0 C5.46702377 10.86273853 5.46702377 10.86273853 5 16 C3.35 16.33 1.7 16.66 0 17 C0 16.34 0 15.68 0 15 C-1.65 15.66 -3.3 16.32 -5 17 C-4.53444296 10.59859065 -2.85288164 5.73230171 0 0 Z " fill="#243D8F" transform="translate(85,81)"/>
<path d="M0 0 C0.33 0 0.66 0 1 0 C1 8.58 1 17.16 1 26 C2.32 26 3.64 26 5 26 C5 22.37 5 18.74 5 15 C10 15 10 15 11.75 16.5625 C13.34673671 19.67613658 13.66719746 22.53885353 14 26 C13.34 26 12.68 26 12 26 C10.14223235 22.86501708 9.79859524 20.62528568 10 17 C9.01 17 8.02 17 7 17 C7.33 20.96 7.66 24.92 8 29 C6.02 29 4.04 29 2 29 C0 27 0 27 -0.22705078 24.29443359 C-0.21657715 23.17375488 -0.20610352 22.05307617 -0.1953125 20.8984375 C-0.18886719 19.68671875 -0.18242187 18.475 -0.17578125 17.2265625 C-0.15902344 15.95554687 -0.14226562 14.68453125 -0.125 13.375 C-0.11146484 11.456875 -0.11146484 11.456875 -0.09765625 9.5 C-0.07402303 6.33314833 -0.04107629 3.16666576 0 0 Z " fill="#6878A4" transform="translate(134,104)"/>
<path d="M0 0 C0.66 0 1.32 0 2 0 C2.04898438 0.71285156 2.09796875 1.42570312 2.1484375 2.16015625 C2.58128523 7.70508491 3.24028816 12.72086449 5 18 C7.64 18 10.28 18 13 18 C13 18.66 13 19.32 13 20 C9.61915708 20.29033956 6.37154491 20.43930648 3 20 C-0.01935473 17.20157367 -1.89303642 14.61191629 -2.16796875 10.46875 C-2.17441406 9.4890625 -2.18085937 8.509375 -2.1875 7.5 C-2.20167969 6.5203125 -2.21585937 5.540625 -2.23046875 4.53125 C-2 2 -2 2 0 0 Z " fill="#F0F8FC" transform="translate(108,110)"/>
<path d="M0 0 C0 0.99 0 1.98 0 3 C0.99 3 1.98 3 3 3 C3.625 6.375 3.625 6.375 4 10 C3.34 10.66 2.68 11.32 2 12 C1.49384702 10.73160474 0.99530901 9.46016898 0.5 8.1875 C0.2215625 7.47980469 -0.056875 6.77210937 -0.34375 6.04296875 C-1 4 -1 4 -1 1 C-5.29 1 -9.58 1 -14 1 C-14.061875 1.9075 -14.12375 2.815 -14.1875 3.75 C-14.97101798 9.50767002 -17.65762719 14.73614376 -20 20 C-20.33 20 -20.66 20 -21 20 C-21 17.03 -21 14.06 -21 11 C-20.01 10.67 -19.02 10.34 -18 10 C-18 7.03 -18 4.06 -18 1 C-15.2162499 -0.39187505 -12.65963917 -0.38330575 -9.5625 -0.625 C-7.83193359 -0.76808594 -7.83193359 -0.76808594 -6.06640625 -0.9140625 C-3 -1 -3 -1 0 0 Z " fill="#425894" transform="translate(145,68)"/>
<path d="M0 0 C1.9375 1.5 1.9375 1.5 3 3 C2.34 3.66 1.68 4.32 1 5 C0.67 5.66 0.34 6.32 0 7 C-0.33 6.67 -0.66 6.34 -1 6 C-4.45812169 5.66661404 -4.45812169 5.66661404 -8 6 C-10.02350324 9.03525486 -10.32124018 10.19426202 -10.625 13.6875 C-10.69976562 14.49574219 -10.77453125 15.30398437 -10.8515625 16.13671875 C-10.90054688 16.75160156 -10.94953125 17.36648437 -11 18 C-11.33 18 -11.66 18 -12 18 C-12 14.37 -12 10.74 -12 7 C-12.99 7.33 -13.98 7.66 -15 8 C-13.70989008 5.12206249 -12.42638194 3.03816083 -10 1 C-6.44646071 -0.1845131 -3.72986522 -0.26641894 0 0 Z " fill="#DDE5F5" transform="translate(122,103)"/>
<path d="M0 0 C0 0.99 0 1.98 0 3 C0.99 3.33 1.98 3.66 3 4 C2.34 4 1.68 4 1 4 C1 10.27 1 16.54 1 23 C0.34 23 -0.32 23 -1 23 C-2.30459914 20.39080172 -2.1326594 18.41057385 -2.125 15.5 C-2.12757812 14.5203125 -2.13015625 13.540625 -2.1328125 12.53125 C-2 10 -2 10 -1 8 C-2.98 8 -4.96 8 -7 8 C-7 7.67 -7 7.34 -7 7 C-5.35 7 -3.7 7 -2 7 C-2 5.35 -2 3.7 -2 2 C-8.6 2 -15.2 2 -22 2 C-22 1.67 -22 1.34 -22 1 C-18.70837401 0.83252349 -15.41669287 0.66615639 -12.125 0.5 C-11.18785156 0.45230469 -10.25070313 0.40460938 -9.28515625 0.35546875 C-8.38925781 0.31035156 -7.49335937 0.26523438 -6.5703125 0.21875 C-5.74289551 0.17685547 -4.91547852 0.13496094 -4.06298828 0.09179688 C-2.70965236 0.03157743 -1.35467505 0 0 0 Z " fill="#425398" transform="translate(106,102)"/>
<path d="M0 0 C0.66 0.33 1.32 0.66 2 1 C2 1.66 2 2.32 2 3 C3.32 3.33 4.64 3.66 6 4 C6 4.66 6 5.32 6 6 C6.78375 6.12375 7.5675 6.2475 8.375 6.375 C11 7 11 7 13 9 C13.37109375 11.71484375 13.37109375 11.71484375 13.4375 14.9375 C13.47746094 15.99839844 13.51742187 17.05929688 13.55859375 18.15234375 C13 21 13 21 10.8671875 22.8671875 C7.58442205 24.16419292 5.20436722 24.30344068 1.6875 24.1875 C0.61886719 24.16042969 -0.44976562 24.13335937 -1.55078125 24.10546875 C-2.35902344 24.07066406 -3.16726562 24.03585938 -4 24 C-4.33 23.01 -4.66 22.02 -5 21 C-4.25234375 21.02320313 -3.5046875 21.04640625 -2.734375 21.0703125 C-1.74953125 21.08835938 -0.7646875 21.10640625 0.25 21.125 C1.22453125 21.14820313 2.1990625 21.17140625 3.203125 21.1953125 C6.05069951 20.99645953 7.63037132 20.55438946 10 19 C11.14352916 16.71294169 11.10334439 15.40735238 11.0625 12.875 C11.041875 11.59625 11.02125 10.3175 11 9 C10.113125 8.731875 9.22625 8.46375 8.3125 8.1875 C5.17120373 7.06137492 2.65031088 6.02670832 0 4 C0 2.68 0 1.36 0 0 Z " fill="#3B518F" transform="translate(163,109)"/>
<path d="M0 0 C1.98 0 3.96 0 6 0 C6 6.27 6 12.54 6 19 C5.67 18.01 5.34 17.02 5 16 C4.34 16 3.68 16 3 16 C2.67 16.99 2.34 17.98 2 19 C1.34 18.34 0.68 17.68 0 17 C0.25 13.9375 0.25 13.9375 1 11 C1.66 10.67 2.32 10.34 3 10 C3.46522293 5.20691658 3.46522293 5.20691658 1.5 1.0625 C1.005 0.711875 0.51 0.36125 0 0 Z " fill="#26418F" transform="translate(100,77)"/>
<path d="M0 0 C0 6.27 0 12.54 0 19 C-1.32 19 -2.64 19 -4 19 C-4.20289367 6.5333109 -4.20289367 6.5333109 -3 1 C-1 0 -1 0 0 0 Z " fill="#F6FDFD" transform="translate(96,111)"/>
<path d="M0 0 C0.33 0 0.66 0 1 0 C1.19573608 1.43640171 1.38127816 2.87419504 1.5625 4.3125 C1.66691406 5.11300781 1.77132812 5.91351563 1.87890625 6.73828125 C2 9 2 9 1 12 C1.66 12.33 2.32 12.66 3 13 C-1.90924297 16.92739438 -4.73920552 17.43177893 -11 17 C-11 16.67 -11 16.34 -11 16 C-8.69 16 -6.38 16 -4 16 C-4 15.34 -4 14.68 -4 14 C-6.64 14 -9.28 14 -12 14 C-12.33 12.68 -12.66 11.36 -13 10 C-11.515 10.99 -11.515 10.99 -10 12 C-6.42823885 11.91832511 -6.42823885 11.91832511 -3 11 C-1.06604999 8.09907498 -0.69868059 7.10325263 -0.375 3.8125 C-0.25125 2.554375 -0.1275 1.29625 0 0 Z " fill="#D6E1F2" transform="translate(125,114)"/>
<path d="M0 0 C3.3 0 6.6 0 10 0 C9.67 1.32 9.34 2.64 9 4 C8.34 4 7.68 4 7 4 C7 4.99 7 5.98 7 7 C2.71 7 -1.58 7 -6 7 C-3.37352812 5.24901874 -0.71224618 3.61268692 2 2 C1.34 1.34 0.68 0.68 0 0 Z " fill="#25418B" transform="translate(142,96)"/>
<path d="M0 0 C1.73546076 2.60319113 2.65175233 4.52267237 3.625 7.4375 C3.88539063 8.19933594 4.14578125 8.96117188 4.4140625 9.74609375 C5 12 5 12 5 16 C4.34 16 3.68 16 3 16 C2.67 14.02 2.34 12.04 2 10 C1.01 10 0.02 10 -1 10 C-1.66 12.31 -2.32 14.62 -3 17 C-3.66 16.67 -4.32 16.34 -5 16 C-4.54548816 14.26982492 -4.08621143 12.54090123 -3.625 10.8125 C-3.36976563 9.84957031 -3.11453125 8.88664062 -2.8515625 7.89453125 C-2.05233704 5.17789793 -1.0968638 2.60862825 0 0 Z " fill="#455890" transform="translate(137,80)"/>
<path d="M0 0 C1.65 0 3.3 0 5 0 C6.24103707 3.58521821 6.10314892 6.37536784 5 10 C3.35 10.66 1.7 11.32 0 12 C0 8.04 0 4.08 0 0 Z " fill="#223F98" transform="translate(119,79)"/>
<path d="M0 0 C2.31 0 4.62 0 7 0 C7 0.33 7 0.66 7 1 C5.35 1 3.7 1 2 1 C2.0407666 1.62567871 2.0815332 2.25135742 2.12353516 2.89599609 C2.30155726 5.72176882 2.46347078 8.54823861 2.625 11.375 C2.68945312 12.35984375 2.75390625 13.3446875 2.8203125 14.359375 C2.871875 15.30039063 2.9234375 16.24140625 2.9765625 17.2109375 C3.02893066 18.08024902 3.08129883 18.94956055 3.13525391 19.84521484 C3 22 3 22 1 24 C0 23 0 23 -0.11352539 20.77514648 C-0.10828857 19.81680908 -0.10305176 18.85847168 -0.09765625 17.87109375 C-0.09443359 16.83662109 -0.09121094 15.80214844 -0.08789062 14.73632812 C-0.07951172 13.64771484 -0.07113281 12.55910156 -0.0625 11.4375 C-0.05798828 10.34501953 -0.05347656 9.25253906 -0.04882812 8.12695312 C-0.03699826 5.41791505 -0.02051543 2.70898401 0 0 Z " fill="#344987" transform="translate(97,108)"/>
<path d="M0 0 C1.65 0.33 3.3 0.66 5 1 C5.625 2.875 5.625 2.875 6 5 C4 7 4 7 2.125 7.23046875 C1.073125 7.20919922 1.073125 7.20919922 0 7.1875 C-0.70125 7.18105469 -1.4025 7.17460938 -2.125 7.16796875 C-4 7 -4 7 -6 6 C-6.33 7.32 -6.66 8.64 -7 10 C-7.33 8.02 -7.66 6.04 -8 4 C-4.535 3.505 -4.535 3.505 -1 3 C-1 3.66 -1 4.32 -1 5 C0.32 5 1.64 5 3 5 C2.2236068 1.9254644 2.2236068 1.9254644 0 0 Z " fill="#3B5193" transform="translate(164,120)"/>
<path d="M0 0 C0.66 0 1.32 0 2 0 C2.50559908 1.43554025 3.0042749 2.8735202 3.5 4.3125 C3.7784375 5.11300781 4.056875 5.91351563 4.34375 6.73828125 C5 9 5 9 5 12 C3.35 12 1.7 12 0 12 C-0.38897161 10.37828761 -0.76078298 8.75245075 -1.125 7.125 C-1.43824219 5.76761719 -1.43824219 5.76761719 -1.7578125 4.3828125 C-1.83773437 3.59648438 -1.91765625 2.81015625 -2 2 C-1.34 1.34 -0.68 0.68 0 0 Z " fill="#ECF3FA" transform="translate(148,119)"/>
<path d="M0 0 C0.66 0.33 1.32 0.66 2 1 C2 2.32 2 3.64 2 5 C0.40012764 5.27615058 -1.205333 5.52007625 -2.8125 5.75 C-3.70582031 5.88921875 -4.59914062 6.0284375 -5.51953125 6.171875 C-8 6 -8 6 -9.82421875 4.015625 C-10.21222656 3.35046875 -10.60023438 2.6853125 -11 2 C-7.36178302 -0.32845886 -4.23971058 -0.23553948 0 0 Z " fill="#C5D1E6" transform="translate(171,103)"/>
<path d="M0 0 C0.33 0 0.66 0 1 0 C1.13277344 0.69867188 1.26554687 1.39734375 1.40234375 2.1171875 C1.57894531 3.02726562 1.75554688 3.93734375 1.9375 4.875 C2.11152344 5.77992187 2.28554688 6.68484375 2.46484375 7.6171875 C2.89963701 9.99956317 2.89963701 9.99956317 4 12 C4.04022391 14.3329866 4.04320247 16.66706666 4 19 C2.35 19 0.7 19 -1 19 C-0.67 12.73 -0.34 6.46 0 0 Z " fill="#D6E4F2" transform="translate(26,112)"/>
<path d="M0 0 C5.7282577 -0.45826062 8.4998494 0.44174139 13 4 C15 6 15 6 15 9 C13.68 9 12.36 9 11 9 C10.67 9.66 10.34 10.32 10 11 C9.5978125 9.5459375 9.5978125 9.5459375 9.1875 8.0625 C8.795625 7.051875 8.40375 6.04125 8 5 C7.01 4.67 6.02 4.34 5 4 C5.66 3.67 6.32 3.34 7 3 C4.69 2.34 2.38 1.68 0 1 C0 0.67 0 0.34 0 0 Z " fill="#D6DFEF" transform="translate(67,103)"/>
<path d="M0 0 C1.99954746 -0.04254356 4.00041636 -0.04080783 6 0 C7 1 7 1 7.25 3.4375 C7.1675 4.283125 7.085 5.12875 7 6 C4 8 4 8 0 8 C0 5.36 0 2.72 0 0 Z " fill="#2B3F8A" transform="translate(140,108)"/>
<path d="M0 0 C0.33 0 0.66 0 1 0 C1 8.25 1 16.5 1 25 C0.67 25 0.34 25 0 25 C-0.33 22.36 -0.66 19.72 -1 17 C-1.33 17 -1.66 17 -2 17 C-2.33 13.04 -2.66 9.08 -3 5 C-2.01 5 -1.02 5 0 5 C0 3.35 0 1.7 0 0 Z " fill="#294185" transform="translate(133,105)"/>
<path d="M0 0 C0.66 0.33 1.32 0.66 2 1 C1.67 6.94 1.34 12.88 1 19 C-2.18062193 14.75917076 -2.39299697 13.93450404 -2.3125 8.9375 C-2.30863281 7.89464844 -2.30476563 6.85179688 -2.30078125 5.77734375 C-2 3 -2 3 0 0 Z " fill="#F6FCFE" transform="translate(29,105)"/>
<path d="M0 0 C11.52164009 -0.55353075 11.52164009 -0.55353075 17 3 C17 4.65 17 6.3 17 8 C16.67 7.01 16.34 6.02 16 5 C13.98491642 4.26676204 13.98491642 4.26676204 12 4 C11.67 4.66 11.34 5.32 11 6 C8.03 5.505 8.03 5.505 5 5 C5 7.64 5 10.28 5 13 C4.67 13 4.34 13 4 13 C4 10.03 4 7.06 4 4 C5.98 3.67 7.96 3.34 10 3 C10 2.67 10 2.34 10 2 C6.7 1.67 3.4 1.34 0 1 C0 0.67 0 0.34 0 0 Z " fill="#B3C0D8" transform="translate(135,103)"/>
<path d="M0 0 C0.99 0 1.98 0 3 0 C4.38550197 2.77100394 4.1877467 4.9334706 4 8 C3.01 9.485 3.01 9.485 2 11 C0.68 10.67 -0.64 10.34 -2 10 C-1.34 6.7 -0.68 3.4 0 0 Z " fill="#DBE6F2" transform="translate(171,118)"/>
<path d="M0 0 C0.33 0.66 0.66 1.32 1 2 C1.99 2.33 2.98 2.66 4 3 C2.68 7.29 1.36 11.58 0 16 C-3 12 -3 12 -2.63671875 8.984375 C-2.32347656 7.91703125 -2.01023438 6.8496875 -1.6875 5.75 C-1.38199219 4.67234375 -1.07648437 3.5946875 -0.76171875 2.484375 C-0.51035156 1.66453125 -0.25898437 0.8446875 0 0 Z " fill="#DBE5F4" transform="translate(43,110)"/>
<path d="M0 0 C0.33 0 0.66 0 1 0 C1.33 7.26 1.66 14.52 2 22 C1.34 22 0.68 22 0 22 C-0.33 19.69 -0.66 17.38 -1 15 C-1.99 15 -2.98 15 -4 15 C-3.52229477 13.06213915 -3.04278429 11.12472326 -2.5625 9.1875 C-2.29566406 8.10855469 -2.02882812 7.02960938 -1.75390625 5.91796875 C-1.23922588 3.9259157 -0.65062825 1.95188476 0 0 Z " fill="#3B4E85" transform="translate(47,110)"/>
<path d="M0 0 C5.28 0 10.56 0 16 0 C16.33 1.98 16.66 3.96 17 6 C16.01 6.33 15.02 6.66 14 7 C13.67 7.66 13.34 8.32 13 9 C12.67 8.01 12.34 7.02 12 6 C12.66 6 13.32 6 14 6 C14 4.68 14 3.36 14 2 C6.77967794 1.7006013 6.77967794 1.7006013 0 4 C0 2.68 0 1.36 0 0 Z " fill="#31458A" transform="translate(159,102)"/>
<path d="M0 0 C0.33 0 0.66 0 1 0 C1.8125 3.25 1.8125 3.25 2 7 C-0.63655176 10.13090522 -2.59757426 10.90115859 -6.5625 11.875 C-10.02787047 12.00101347 -11.10497178 11.6343923 -14 10 C-13.38511719 9.86722656 -12.77023438 9.73445312 -12.13671875 9.59765625 C-11.32847656 9.42105469 -10.52023438 9.24445313 -9.6875 9.0625 C-8.88699219 8.88847656 -8.08648437 8.71445313 -7.26171875 8.53515625 C-4.854599 8.00113841 -4.854599 8.00113841 -2 7 C-0.77030122 3.48809191 -0.77030122 3.48809191 0 0 Z " fill="#3F5393" transform="translate(82,121)"/>
<path d="M0 0 C2.875 0.1875 2.875 0.1875 6 1 C8.57580348 5.25007574 7.90505 9.12771693 7.125 13.8125 C7.02058594 14.50537109 6.91617188 15.19824219 6.80859375 15.91210938 C6.55099396 17.60992614 6.27712712 19.30526109 6 21 C5.34 20.34 4.68 19.68 4 19 C4 18.01 4 17.02 4 16 C3.34 16 2.68 16 2 16 C2 15.34 2 14.68 2 14 C2.474375 13.62875 2.94875 13.2575 3.4375 12.875 C5.91815779 9.89821065 5.68762481 6.81097735 6 3 C4.02 2.34 2.04 1.68 0 1 C0 0.67 0 0.34 0 0 Z " fill="#4C6096" transform="translate(146,103)"/>
<path d="M0 0 C2.31 0 4.62 0 7 0 C7 0.66 7 1.32 7 2 C5.35 2.33 3.7 2.66 2 3 C2.01160156 3.65226562 2.02320312 4.30453125 2.03515625 4.9765625 C2.08470994 9.7761914 1.99413751 14.27784685 1 19 C0.67 19 0.34 19 0 19 C0 12.73 0 6.46 0 0 Z " fill="#304780" transform="translate(65,77)"/>
<path d="M0 0 C0.33 0.99 0.66 1.98 1 3 C1.66 3 2.32 3 3 3 C3.33 2.01 3.66 1.02 4 0 C4.33 0 4.66 0 5 0 C5.125 6.75 5.125 6.75 4 9 C2.68 9 1.36 9 0 9 C-1.36623674 6.26752652 -1.128426 4.01801098 -1 1 C-0.67 0.67 -0.34 0.34 0 0 Z " fill="#F1F8FD" transform="translate(37,121)"/>
<path d="M0 0 C2.1519437 3.22791555 2.20086443 4.28400809 2 8 C0.35 8.33 -1.3 8.66 -3 9 C-3 8.34 -3 7.68 -3 7 C-4.65 7.66 -6.3 8.32 -8 9 C-7.67 6.36 -7.34 3.72 -7 1 C-6.67 1 -6.34 1 -6 1 C-6 2.65 -6 4.3 -6 6 C-5.34 6 -4.68 6 -4 6 C-3.67 5.34 -3.34 4.68 -3 4 C-2.34 4.33 -1.68 4.66 -1 5 C-0.67 3.35 -0.34 1.7 0 0 Z " fill="#304A9A" transform="translate(88,89)"/>
<path d="M0 0 C6.52307692 -0.36923077 6.52307692 -0.36923077 8.9375 1.5 C9.288125 1.995 9.63875 2.49 10 3 C9.34 3.66 8.68 4.32 8 5 C7.67 5.66 7.34 6.32 7 7 C4.69 6.34 2.38 5.68 0 5 C0 3.33333333 0 1.66666667 0 0 Z " fill="#CAD5E6" transform="translate(115,103)"/>
<path d="M0 0 C5.61 0 11.22 0 17 0 C17 0.33 17 0.66 17 1 C12.05 1 7.1 1 2 1 C2 2.65 2 4.3 2 6 C3.65 6.33 5.3 6.66 7 7 C7 7.33 7 7.66 7 8 C4.69 8 2.38 8 0 8 C0 5.36 0 2.72 0 0 Z " fill="#E2F1F9" transform="translate(99,69)"/>
<path d="M0 0 C3 3 3 3 3.25 6.875 C3.13467389 10.00033757 2.76049532 12.95801871 2 16 C1.34 16 0.68 16 0 16 C0 10.72 0 5.44 0 0 Z " fill="#F8FDFD" transform="translate(126,110)"/>
<path d="M0 0 C0.33 0.495 0.66 0.99 1 1.5 C4.17572747 3.88179561 7.10246066 3.19168226 11 3 C10 6 10 6 8 7 C5.0625 7.375 5.0625 7.375 2 7 C0.0625 4.625 0.0625 4.625 -1 2 C-0.67 1.34 -0.34 0.68 0 0 Z " fill="#364D8A" transform="translate(65,120)"/>
<path d="M0 0 C0.66 0.33 1.32 0.66 2 1 C1.54965877 2.62723299 1.08944646 4.25173664 0.625 5.875 C0.36976562 6.77992187 0.11453125 7.68484375 -0.1484375 8.6171875 C-1 11 -1 11 -3 13 C-5.60018816 9.09971775 -5.15085514 5.52565431 -5 1 C-4.67 1 -4.34 1 -4 1 C-3.67 2.65 -3.34 4.3 -3 6 C-2.34 6 -1.68 6 -1 6 C-0.67 4.02 -0.34 2.04 0 0 Z " fill="#3A4F8D" transform="translate(77,68)"/>
<path d="M0 0 C0.33 0 0.66 0 1 0 C1 3.3 1 6.6 1 10 C2.98 10 4.96 10 7 10 C7 10.33 7 10.66 7 11 C3.7 11 0.4 11 -3 11 C-2.44894091 7.0507432 -1.61064629 3.65079826 0 0 Z " fill="#D5E3F5" transform="translate(125,85)"/>
<path d="M0 0 C1.32 0 2.64 0 4 0 C4 2.64 4 5.28 4 8 C2.68 8.33 1.36 8.66 0 9 C0 6.03 0 3.06 0 0 Z " fill="#F4FCFC" transform="translate(78,112)"/>
<path d="M0 0 C4.95 0 9.9 0 15 0 C16.7578125 6.0546875 16.7578125 6.0546875 17 8 C16.34 8.66 15.68 9.32 15 10 C14.01 7.36 13.02 4.72 12 2 C8.04 1.67 4.08 1.34 0 1 C0 0.67 0 0.34 0 0 Z " fill="#4F6394" transform="translate(79,68)"/>
<path d="M0 0 C2.44839588 3.67259383 4 6.54648201 4 11 C0.37 11 -3.26 11 -7 11 C-6.67 10.34 -6.34 9.68 -6 9 C-3.69 9.33 -1.38 9.66 1 10 C0.7525 8.63875 0.7525 8.63875 0.5 7.25 C0 4 0 4 0 0 Z " fill="#C8D4EC" transform="translate(149,85)"/>
<path d="M0 0 C0.66 0 1.32 0 2 0 C1.49202991 4.3177458 0.80317221 8.03302114 -1 12 C-1.66 12 -2.32 12 -3 12 C-3.33 10.35 -3.66 8.7 -4 7 C-3.34 7 -2.68 7 -2 7 C-1.34 4.69 -0.68 2.38 0 0 Z " fill="#395092" transform="translate(71,84)"/>
<path d="M0 0 C1.98 0 3.96 0 6 0 C6 6.27 6 12.54 6 19 C5.67 19 5.34 19 5 19 C5 13.72 5 8.44 5 3 C2.525 2.01 2.525 2.01 0 1 C0 0.67 0 0.34 0 0 Z " fill="#2F417B" transform="translate(100,77)"/>
<path d="M0 0 C0.33 0 0.66 0 1 0 C1 2.31 1 4.62 1 7 C0.01 7.33 -0.98 7.66 -2 8 C-2.33 8.99 -2.66 9.98 -3 11 C-3.66 10.67 -4.32 10.34 -5 10 C-4.1875 6.5625 -4.1875 6.5625 -3 3 C-2.01 2.67 -1.02 2.34 0 2 C0 1.34 0 0.68 0 0 Z " fill="#2B479E" transform="translate(103,80)"/>
<path d="M0 0 C0.66 0 1.32 0 2 0 C2 1.32 2 2.64 2 4 C-2.29 4 -6.58 4 -11 4 C-11 3.34 -11 2.68 -11 2 C-7.37 2 -3.74 2 0 2 C0 1.34 0 0.68 0 0 Z " fill="#263E8B" transform="translate(91,64)"/>
<path d="M0 0 C-0.33 1.98 -0.66 3.96 -1 6 C-1.33 4.68 -1.66 3.36 -2 2 C-8.6 2 -15.2 2 -22 2 C-22 1.67 -22 1.34 -22 1 C-18.70837401 0.83252349 -15.41669287 0.66615639 -12.125 0.5 C-11.18785156 0.45230469 -10.25070313 0.40460938 -9.28515625 0.35546875 C-8.38925781 0.31035156 -7.49335937 0.26523438 -6.5703125 0.21875 C-5.74289551 0.17685547 -4.91547852 0.13496094 -4.06298828 0.09179688 C-2.70965236 0.03157743 -1.35467505 0 0 0 Z " fill="#5669A2" transform="translate(106,102)"/>
<path d="M0 0 C2.64 0 5.28 0 8 0 C8 6.27 8 12.54 8 19 C7.67 19 7.34 19 7 19 C6.67 13.72 6.34 8.44 6 3 C4.02 2.34 2.04 1.68 0 1 C0 0.67 0 0.34 0 0 Z " fill="#304277" transform="translate(46,77)"/>
<path d="M0 0 C1.39607277 3.74360914 0.57200275 6.02321534 -0.8125 9.6875 C-1.16957031 10.66074219 -1.52664062 11.63398437 -1.89453125 12.63671875 C-3 15 -3 15 -5 16 C-3.90301833 10.30860098 -2.45946923 5.25432063 0 0 Z " fill="#CDD9EC" transform="translate(77,74)"/>
<path d="M0 0 C0.99 0.33 1.98 0.66 3 1 C3 1.99 3 2.98 3 4 C3.99 4 4.98 4 6 4 C6.625 7.375 6.625 7.375 7 11 C6.34 11.66 5.68 12.32 5 13 C3.35 8.71 1.7 4.42 0 0 Z " fill="#354A8D" transform="translate(142,67)"/>
<path d="M0 0 C0.66 0 1.32 0 2 0 C1.45144652 4.571279 0.58255197 8.67435795 -1 13 C-1.66 13 -2.32 13 -3 13 C-2.01 8.71 -1.02 4.42 0 0 Z " fill="#374A90" transform="translate(43,103)"/>
<path d="M0 0 C0.66 0 1.32 0 2 0 C2 0.66 2 1.32 2 2 C2.66 2.33 3.32 2.66 4 3 C3.01 3.33 2.02 3.66 1 4 C-0.09166275 5.93330603 -0.09166275 5.93330603 -1 8 C-1.66 8.66 -2.32 9.32 -3 10 C-3 8.35 -3 6.7 -3 5 C-2.34 5 -1.68 5 -1 5 C-0.67 3.35 -0.34 1.7 0 0 Z " fill="#35508A" transform="translate(61,102)"/>
<path d="M0 0 C0.66 0.99 1.32 1.98 2 3 C1.34 3 0.68 3 0 3 C-0.33 4.32 -0.66 5.64 -1 7 C-3.97 6.505 -3.97 6.505 -7 6 C-6.34 4.68 -5.68 3.36 -5 2 C-5 2.66 -5 3.32 -5 4 C-3.68 4 -2.36 4 -1 4 C-0.67 2.68 -0.34 1.36 0 0 Z " fill="#4E61A0" transform="translate(42,126)"/>
<path d="M0 0 C0.66 0 1.32 0 2 0 C3.32 3.63 4.64 7.26 6 11 C5.34 11.66 4.68 12.32 4 13 C3.32694982 11.39850114 2.66177773 9.79368971 2 8.1875 C1.62875 7.29417969 1.2575 6.40085937 0.875 5.48046875 C0 3 0 3 0 0 Z " fill="#364A88" transform="translate(148,80)"/>
<path d="M0 0 C2 1 2 1 2.8515625 3.28515625 C3.10679688 4.20167969 3.36203125 5.11820312 3.625 6.0625 C3.88539062 6.98160156 4.14578125 7.90070313 4.4140625 8.84765625 C4.60742188 9.55792969 4.80078125 10.26820312 5 11 C2 10 2 10 0 7 C-0.07905064 4.66800612 -0.08798769 2.33167378 0 0 Z " fill="#DCE8F5" transform="translate(90,69)"/>
<path d="M0 0 C0.99 0.495 0.99 0.495 2 1 C2 1.66 2 2.32 2 3 C3.32 3.33 4.64 3.66 6 4 C6 4.66 6 5.32 6 6 C7.65 6.33 9.3 6.66 11 7 C10.34 7.66 9.68 8.32 9 9 C6.03 7.35 3.06 5.7 0 4 C0 2.68 0 1.36 0 0 Z " fill="#4D6098" transform="translate(163,109)"/>
<path d="M0 0 C3.96 0 7.92 0 12 0 C12.33 1.65 12.66 3.3 13 5 C12.67 4.34 12.34 3.68 12 3 C8.37 3 4.74 3 1 3 C0.67 2.01 0.34 1.02 0 0 Z " fill="#455A98" transform="translate(112,130)"/>
<path d="M0 0 C2.31 0 4.62 0 7 0 C7.33 0.99 7.66 1.98 8 3 C5.69 3.33 3.38 3.66 1 4 C0.67 2.68 0.34 1.36 0 0 Z " fill="#284286" transform="translate(164,108)"/>
<path d="M0 0 C0 0.33 0 0.66 0 1 C-0.66386719 1.09796875 -1.32773438 1.1959375 -2.01171875 1.296875 C-7.37285726 2.20474663 -11.02036413 3.02036413 -15 7 C-15 6.01 -15 5.02 -15 4 C-14.34 4 -13.68 4 -13 4 C-12.67 3.01 -12.34 2.02 -12 1 C-8.32433144 -0.61729417 -3.92760325 -0.06546005 0 0 Z " fill="#374B88" transform="translate(122,102)"/>
<path d="M0 0 C1.32 1.65 2.64 3.3 4 5 C3.01 6.485 3.01 6.485 2 8 C0.68 8 -0.64 8 -2 8 C-2 7.34 -2 6.68 -2 6 C-1.34 6 -0.68 6 0 6 C0 4.02 0 2.04 0 0 Z M-4 8 C-2 9 -2 9 -2 9 Z " fill="#3B4E95" transform="translate(58,122)"/>
<path d="M0 0 C2.875 -0.125 2.875 -0.125 6 0 C6.66 0.66 7.32 1.32 8 2 C7 3 7 3 5.15234375 3.09765625 C3.1015625 3.06510417 1.05078125 3.03255208 -1 3 C-0.67 2.01 -0.34 1.02 0 0 Z " fill="#F2FBFE" transform="translate(67,104)"/>
<path d="M0 0 C2.7972908 2.06756277 3.02692273 3.14440371 3.6875 6.6875 C3.790625 7.780625 3.89375 8.87375 4 10 C3.34 10 2.68 10 2 10 C-0.09350689 6.5980513 -0.17942163 3.94727588 0 0 Z " fill="#495C94" transform="translate(144,120)"/>
<path d="M0 0 C0.33 0 0.66 0 1 0 C1.1875 2.375 1.1875 2.375 1 5 C-2 7 -2 7 -4.1875 6.625 C-4.785625 6.41875 -5.38375 6.2125 -6 6 C-5.67 4.35 -5.34 2.7 -5 1 C-4.67 1.99 -4.34 2.98 -4 4 C-2.68 4 -1.36 4 0 4 C0 2.68 0 1.36 0 0 Z " fill="#364785" transform="translate(146,109)"/>
<path d="M0 0 C0.66 0.33 1.32 0.66 2 1 C1.67 1.99 1.34 2.98 1 4 C1.66 4 2.32 4 3 4 C3 5.65 3 7.3 3 9 C2.34 8.34 1.68 7.68 1 7 C0.01 7 -0.98 7 -2 7 C-1.42415568 4.61435923 -0.77772405 2.33317216 0 0 Z " fill="#ECF4F9" transform="translate(46,105)"/>
<path d="M0 0 C1.20628008 2.33214148 2.1654738 4.49642139 3 7 C2.34 7 1.68 7 1 7 C1 6.34 1 5.68 1 5 C0.34 5 -0.32 5 -1 5 C-1 6.32 -1 7.64 -1 9 C-1.66 9 -2.32 9 -3 9 C-2.69181644 7.68647977 -2.37832335 6.37420428 -2.0625 5.0625 C-1.88847656 4.33160156 -1.71445313 3.60070312 -1.53515625 2.84765625 C-1 1 -1 1 0 0 Z " fill="#48568B" transform="translate(85,81)"/>
<path d="M0 0 C0.66 0.33 1.32 0.66 2 1 C2 2.98 2 4.96 2 7 C1.01 7 0.02 7 -1 7 C-1.66 5.35 -2.32 3.7 -3 2 C-2.01 2 -1.02 2 0 2 C0 1.34 0 0.68 0 0 Z " fill="#293F90" transform="translate(72,77)"/>
<path d="M0 0 C1.4606285 2.64738916 2 3.89448334 2 7 C0.35 7 -1.3 7 -3 7 C-2.67 5.68 -2.34 4.36 -2 3 C-1.34 3.33 -0.68 3.66 0 4 C0 2.68 0 1.36 0 0 Z " fill="#D1E1F5" transform="translate(151,124)"/>
<path d="M0 0 C2.31 0.33 4.62 0.66 7 1 C7 2.65 7 4.3 7 6 C5.83054208 5.19152271 4.66449539 4.37810888 3.5 3.5625 C2.8503125 3.11003906 2.200625 2.65757813 1.53125 2.19140625 C1.0259375 1.79824219 0.520625 1.40507813 0 1 C0 0.67 0 0.34 0 0 Z " fill="#405591" transform="translate(122,103)"/>
<path d="M0 0 C2.64 0.66 5.28 1.32 8 2 C4.77208445 4.1519437 3.71599191 4.20086443 0 4 C0 2.68 0 1.36 0 0 Z " fill="#EAF4FE" transform="translate(158,126)"/>
<path d="M0 0 C0.66 0 1.32 0 2 0 C2.33 1.65 2.66 3.3 3 5 C2.01 5.33 1.02 5.66 0 6 C-0.33 6.66 -0.66 7.32 -1 8 C-1.33 7.01 -1.66 6.02 -2 5 C-1.34 5 -0.68 5 0 5 C0 3.35 0 1.7 0 0 Z " fill="#3A5095" transform="translate(173,103)"/>
<path d="M0 0 C-0.33 0.99 -0.66 1.98 -1 3 C-3.8125 3.625 -3.8125 3.625 -7 4 C-7.99 3.34 -8.98 2.68 -10 2 C-6.38026598 0.68373308 -3.90432869 0 0 0 Z " fill="#F4FAFE" transform="translate(79,126)"/>
<path d="M0 0 C2.56616632 3.84924948 2.55097676 6.4349304 3 11 C2.34 11 1.68 11 1 11 C0.4254048 7.26513121 0 3.78706732 0 0 Z " fill="#465C94" transform="translate(139,85)"/>
<path d="M0 0 C0.66 1.32 1.32 2.64 2 4 C0.67172689 6.85578718 -0.14643942 8.57321971 -3 10 C-2.01 6.7 -1.02 3.4 0 0 Z " fill="#DAE8F5" transform="translate(131,69)"/>
<path d="M0 0 C2.475 0.495 2.475 0.495 5 1 C5.33 2.32 5.66 3.64 6 5 C5.01 5 4.02 5 3 5 C2.67 4.01 2.34 3.02 2 2 C1.34 1.34 0.68 0.68 0 0 Z " fill="#46588B" transform="translate(164,120)"/>
<path d="M0 0 C2 3 2 3 2 7 C1.01 7 0.02 7 -1 7 C-1.04254356 5.00045254 -1.04080783 2.99958364 -1 1 C-0.67 0.67 -0.34 0.34 0 0 Z " fill="#1F4095" transform="translate(56,121)"/>
<path d="M0 0 C0.99 0.33 1.98 0.66 3 1 C2.67 2.98 2.34 4.96 2 7 C1.67 6.34 1.34 5.68 1 5 C0.34 5 -0.32 5 -1 5 C-0.67 3.35 -0.34 1.7 0 0 Z " fill="#F9FAFE" transform="translate(160,106)"/>
<path d="M0 0 C1.65 0 3.3 0 5 0 C5 0.99 5 1.98 5 3 C3.02 3 1.04 3 -1 3 C-0.67 2.01 -0.34 1.02 0 0 Z " fill="#F1FBFE" transform="translate(167,104)"/>
<path d="M0 0 C0 1.98 0 3.96 0 6 C-0.66 4.68 -1.32 3.36 -2 2 C-4.31 2 -6.62 2 -9 2 C-9 1.67 -9 1.34 -9 1 C-2.25 0 -2.25 0 0 0 Z " fill="#435997" transform="translate(36,102)"/>
<path d="M0 0 C2.1519437 3.22791555 2.20086443 4.28400809 2 8 C1.01 7.67 0.02 7.34 -1 7 C-0.67 4.69 -0.34 2.38 0 0 Z " fill="#3B5191" transform="translate(88,89)"/>
<path d="M0 0 C0.33 0 0.66 0 1 0 C1 1.98 1 3.96 1 6 C0.01 6.33 -0.98 6.66 -2 7 C-2.125 4.625 -2.125 4.625 -2 2 C-1.34 1.34 -0.68 0.68 0 0 Z " fill="#FAFEF3" transform="translate(132,84)"/>
<path d="M0 0 C2.97 0 5.94 0 9 0 C9 0.33 9 0.66 9 1 C7.906875 1.309375 6.81375 1.61875 5.6875 1.9375 C3.44592006 2.58337897 1.2130649 3.2623117 -1 4 C-0.67 2.68 -0.34 1.36 0 0 Z " fill="#E3F1F9" transform="translate(79,69)"/>
</svg>
